<?xml version="1.0" encoding="UTF-8"?>
<!-- Created with Inkscape (http://www.inkscape.org/) -->
<svg width="1200" height="1200" version="1.1" viewBox="0 0 317.5 317.5" xmlns="http://www.w3.org/2000/svg" xmlns:xlink="http://www.w3.org/1999/xlink">
 <defs>
  <linearGradient id="swatch39">
   <stop style="stop-color:#454545" offset="0"/>
  </linearGradient>
  <linearGradient id="swatch1">
   <stop style="stop-color:#fe1e00" offset="0"/>
  </linearGradient>
  <linearGradient id="linearGradient1" x1="187.46" x2="206.03" y1="80.654" y2="80.654" gradientUnits="userSpaceOnUse" xlink:href="#swatch1"/>
  <linearGradient id="linearGradient3" x1="12.158" x2="225.31" y1="115.41" y2="115.41" gradientUnits="userSpaceOnUse" xlink:href="#swatch1"/>
  <linearGradient id="linearGradient4" x1="12.158" x2="225.35" y1="115.41" y2="115.41" gradientTransform="translate(34.985 53.605)" gradientUnits="userSpaceOnUse" xlink:href="#swatch1"/>
  <linearGradient id="linearGradient39" x1="20.48" x2="286.21" y1="163.95" y2="163.95" gradientTransform="matrix(.89875 -.29325 .29325 .89875 -28.847 51.836)" gradientUnits="userSpaceOnUse" xlink:href="#swatch39"/>
  <linearGradient id="linearGradient40" x1="43.32" x2="217.57" y1="174.55" y2="174.55" gradientUnits="userSpaceOnUse" xlink:href="#swatch39"/>
  <linearGradient id="linearGradient41" x1="80.381" x2="257.09" y1="154.56" y2="154.56" gradientUnits="userSpaceOnUse" xlink:href="#swatch39"/>
  <filter id="filter6" x="-.076521" y="-.076521" width="1.153" height="1.153" style="color-interpolation-filters:sRGB">
   <feFlood flood-color="rgb(0,0,0)" flood-opacity=".63137" in="SourceGraphic" result="flood"/>
   <feGaussianBlur in="SourceGraphic" result="blur" stdDeviation="8.564485"/>
   <feOffset dx="0.000000" dy="0.000000" in="blur" result="offset"/>
   <feComposite in="flood" in2="offset" operator="in" result="comp1"/>
   <feComposite in="SourceGraphic" in2="comp1" result="comp2"/>
  </filter>
 </defs>
 <circle cx="158.72" cy="158.25" r="134.31" style="fill:#ffffff;filter:url(#filter6)"/>
 <g transform="matrix(.91562 0 0 .91562 17.951 3.4967)">
  <path d="m259.81 169.01a106.07 106.07 0 0 1-106.07 106.07 106.07 106.07 0 0 1-106.07-106.07 106.07 106.07 0 0 1 106.07-106.07 106.07 106.07 0 0 1 106.07 106.07z" style="fill:none;stroke-width:3.958;stroke:url(#linearGradient4)"/>
  <g transform="translate(34.985 53.605)" style="fill:#fe1e00;stroke:url(#linearGradient3)">
   <path d="m150.95 29.007 4.747-13.042c-5.8316-2.1673-11.911-3.8149-18.176-4.9341l-2.4086 13.662c5.4595 0.97821 10.756 2.4199 15.837 4.3139z" style="fill:#fe1e00;stroke:url(#linearGradient3)"/>
   <path d="m179.01 45.661 8.9168-10.626c-4.7391-4.082-9.836-7.7553-15.249-10.958l-6.936 12.013c4.712 2.7971 9.1461 6.0069 13.268 9.571z" style="fill:#fe1e00;stroke:url(#linearGradient3)"/>
   <path d="m199.47 70.861 12.014-6.936c-3.0452-5.4731-6.5543-10.651-10.486-15.474l-10.631 8.9204c3.4132 4.2065 6.4635 8.7177 9.1028 13.49z" style="fill:#fe1e00;stroke:url(#linearGradient3)"/>
   <path d="m209.89 101.39 13.663-2.4092c-0.96531-6.2089-2.4914-12.229-4.4845-18.032l-13.04 4.746c1.7197 5.0526 3.0376 10.291 3.8618 15.695z" style="fill:#fe1e00;stroke:url(#linearGradient3)"/>
   <path d="m209.17 133.41 13.66 2.4086c1.1786-6.0107 1.8187-12.151 1.9389-18.352h-13.874c-0.12013 5.388-0.68574 10.723-1.725 15.943z" style="fill:#fe1e00;stroke:url(#linearGradient3)"/>
   <path d="m197.69 163.03 12.021 6.9412c3.1541-5.2579 5.8158-10.783 8.0119-16.492l-13.036-4.7449c-1.9199 4.9497-4.2477 9.7377-6.9975 14.295z" style="fill:#fe1e00;stroke:url(#linearGradient3)"/>
   <path d="m176.99 186.87 8.9219 10.632c2.7166-2.2226 5.3339-4.5868 7.8378-7.0905l2e-3 -2e-3c1.8176-1.8177 3.5362-3.7136 5.2064-5.6451l-10.626-8.9162c-1.4107 1.624-2.8604 3.2191-4.3915 4.7501l-1e-3 2e-3c-2.2177 2.2175-4.54 4.3057-6.9494 6.2694z" style="fill:#fe1e00;stroke:url(#linearGradient3)"/>
   <path d="m149.62 202.28 4.746 13.039c5.7094-2.0354 11.225-4.5823 16.511-7.5659l-6.9355-12.013c-4.586 2.5798-9.3704 4.7801-14.322 6.5397z" style="fill:#fe1e00;stroke:url(#linearGradient3)"/>
   <path d="m118.76 207.6v13.874c6.0971 0 12.133-0.55594 18.061-1.5808l-2.4086-13.66c-5.1382 0.8856-10.369 1.3663-15.653 1.3663z" style="fill:#fe1e00;stroke:url(#linearGradient3)"/>
   <path d="m87.882 202.29-4.747 13.041c5.6457 2.0129 11.514 3.5476 17.556 4.5847l2.4086-13.662c-5.234-0.89617-10.321-2.2238-15.217-3.9641z" style="fill:#fe1e00;stroke:url(#linearGradient3)"/>
   <path d="m60.517 186.87-8.9209 10.631c4.6862 3.8383 9.7168 7.2658 15.022 10.267l6.937-12.015c-4.6022-2.5946-8.9673-5.5614-13.038-8.8827z" style="fill:#fe1e00;stroke:url(#linearGradient3)"/>
   <path d="m39.81 163.04-12.014 6.936c3.1545 5.2467 6.7634 10.184 10.749 14.789l10.627-8.9168c-3.4682-3.9896-6.6142-8.2638-9.3617-12.808z" style="fill:#fe1e00;stroke:url(#linearGradient3)"/>
   <path d="m28.332 133.41-13.662 2.4086c1.1888 6.0975 2.9061 12.003 5.0912 17.678l13.043-4.747c-1.9123-4.9265-3.4245-10.049-4.4721-15.34z" style="fill:#fe1e00;stroke:url(#linearGradient3)"/>
   <path d="m27.621 101.39-13.663-2.4092c-0.83234 5.3536-1.2707 10.837-1.2707 16.424v0.0109c6.8e-5 0.68528 0.03867 1.3611 0.05168 2.0433h13.874c-0.01498-0.68238-0.05161-1.3595-0.05168-2.0454v-0.01c1.9e-5 -4.7645 0.36241-9.4444 1.0594-14.014z" style="fill:#fe1e00;stroke:url(#linearGradient3)"/>
   <path d="m38.036 70.861-12.013-6.936c-3.0063 5.403-5.543 11.098-7.5799 17.029l13.04 4.746c1.7585-5.1663 3.949-10.131 6.5531-14.839z" style="fill:#fe1e00;stroke:url(#linearGradient3)"/>
   <path d="m58.505 45.661-8.9168-10.627c-4.7406 4.0832-9.1255 8.5649-13.08 13.417l10.631 8.9204c3.4352-4.2337 7.2441-8.1464 11.366-11.71z" style="fill:#fe1e00;stroke:url(#linearGradient3)"/>
   <path d="m86.559 29.006-4.7465-13.041c-5.9294 2.2037-11.601 4.9312-16.975 8.1106l6.936 12.014c4.6792-2.7776 9.6205-5.1578 14.786-7.0833z" style="fill:#fe1e00;stroke:url(#linearGradient3)"/>
   <path d="m118.76 9.3426h-5e-3c-6.4062 3.161e-4 -12.669 0.60021-18.762 1.6888l2.4086 13.662c5.3104-0.95145 10.769-1.4761 16.353-1.4764h5e-3z" style="fill:#fe1e00;stroke:url(#linearGradient3)"/>
  </g>
  <g transform="translate(34.985 53.605)" style="fill:#fe1e00">
   <path d="m158.8 48.104 6.936-12.014c-4.6792-2.7776-9.6206-5.1578-14.786-7.0833l-4.7465 13.042c4.4007 1.6474 8.6119 3.6798 12.596 6.0554z" style="fill:#fe1e00;stroke-width:1.0583"/>
   <path d="m179.74 66.292 10.631-8.9204c-3.4352-4.2336-7.2442-8.1465-11.366-11.71l-8.9168 10.626c3.5035 3.0446 6.7361 6.3893 9.6516 10.005z" style="fill:#fe1e00;stroke-width:1.0583"/>
   <path d="m192.99 90.446 13.04-4.7465c-1.7584-5.1662-3.9491-10.13-6.5531-14.838l-12.014 6.936c2.2019 4.0135 4.0468 8.2467 5.5268 12.649z" style="fill:url(#linearGradient1);stroke-width:1.0583"/>
   <path d="m197.02 117.46h13.874c0.0153-0.68484 0.0512-1.3671 0.0512-2.0536 0-4.7649-0.36234-9.4456-1.0594-14.016l-13.676 2.4117c0.56251 3.7868 0.86145 7.6596 0.86145 11.603 0 0.68684-0.0332 1.3698-0.0512 2.0547z" style="fill:#fe1e00;stroke-width:1.0583"/>
   <path d="m191.65 143.99 13.036 4.7444c1.9253-4.9636 3.4456-10.087 4.4896-15.332l-13.672-2.4107c-0.90343 4.4474-2.2048 8.7916-3.8546 12.998z" style="fill:#fe1e00;stroke-width:1.0583"/>
   <path d="m177.71 166.93 10.626 8.9162c3.4918-4.0198 6.6261-8.3012 9.3493-12.815l-12.022-6.9407c-2.321 3.8173-4.9836 7.4408-7.9535 10.839z" style="fill:#fe1e00;stroke-width:1.0583"/>
   <path d="m157.01 183.72 6.936 12.013c4.5727-2.5723 8.9467-5.5214 13.049-8.8646l-8.9219-10.633c-3.4801 2.8216-7.1867 5.3139-11.063 7.4843z" style="fill:#fe1e00;stroke-width:1.0583"/>
   <path d="m132 192.58 2.4086 13.66c5.1892-0.89442 10.282-2.2075 15.216-3.961l-4.7465-13.041c-4.177 1.4782-8.4867 2.5874-12.878 3.3414z" style="fill:#fe1e00;stroke-width:1.0583"/>
   <path d="m105.51 192.59-2.4092 13.662c5.0914 0.87176 10.315 1.3511 15.651 1.3513h5e-3v-13.874h-5e-3c-4.5115-2e-4 -8.9311-0.40416-13.242-1.1395z" style="fill:#fe1e00;stroke-width:1.0583"/>
   <path d="m80.492 183.74-6.9365 12.015c4.5531 2.5669 9.339 4.7618 14.327 6.5345l4.7465-13.041c-4.2219-1.4941-8.2772-3.3426-12.137-5.5082z" style="fill:#fe1e00;stroke-width:1.0583"/>
   <path d="m59.798 166.93-10.627 8.9168c1.4159 1.6288 2.8687 3.2248 4.3946 4.7506 2.207 2.2068 4.5314 4.2937 6.951 6.2678l8.9209-10.631c-2.1109-1.7133-4.1396-3.5253-6.0622-5.4477-1.2404-1.2404-2.423-2.536-3.5776-3.8561z" style="fill:#fe1e00;stroke-width:1.0583"/>
   <path d="m45.846 144-13.043 4.7475c1.9351 4.9851 4.271 9.7712 7.0063 14.295l12.02-6.9402c-2.3337-3.8307-4.3277-7.8833-5.9836-12.103z" style="fill:#fe1e00;stroke-width:1.0583"/>
   <path d="m40.487 117.46h-13.874c0.11946 5.441 0.69392 10.771 1.7182 15.944l13.662-2.4092c-0.88776-4.3922-1.3864-8.9185-1.5059-13.535z" style="fill:#fe1e00;stroke-width:1.0583"/>
   <path d="m44.523 90.446-13.041-4.7465c-1.7198 5.0527-3.0376 10.291-3.8618 15.695l13.676 2.4112c0.68308-4.5984 1.7807-9.0588 3.2267-13.36z" style="fill:#fe1e00;stroke-width:1.0583"/>
   <path d="m57.77 66.292-10.631-8.9204c-3.4132 4.2065-6.4635 8.7177-9.1028 13.49l12.014 6.9365c2.2334-4.0709 4.8243-7.9157 7.7194-11.506z" style="fill:#fe1e00;stroke-width:1.0583"/>
   <path d="m78.71 48.104-6.9365-12.014c-4.7121 2.7971-9.1461 6.0069-13.268 9.571l8.9168 10.626c3.5056-3.0463 7.2774-5.7915 11.288-8.183z" style="fill:#fe1e00;stroke-width:1.0583"/>
   <path d="m104.81 38.355-2.4092-13.662c-5.4596 0.97819-10.757 2.4193-15.838 4.3134l4.747 13.042c4.3302-1.621 8.8451-2.856 13.5-3.6933z" style="fill:#fe1e00;stroke-width:1.0583"/>
   <path d="m118.76 23.217v13.874c4.7638 2.2e-5 9.4198 0.44873 13.949 1.2635l2.4092-13.661c-5.3121-0.95182-10.772-1.4759-16.358-1.4759z" style="fill:#fe1e00;stroke-width:1.0583"/>
   <path d="m141.46 55.091 4.747-13.042c-4.3302-1.621-8.8451-2.857-13.5-3.6943l-2.4086 13.662c3.8499 0.69648 7.5823 1.7264 11.162 3.0742z" style="fill:#fe1e00;stroke-width:1.0583"/>
   <path d="m161.17 66.914 8.9168-10.627c-3.5055-3.0463-7.2769-5.792-11.288-8.1835l-6.9365 12.014c3.3096 1.9861 6.4187 4.2673 9.3074 6.796z" style="fill:#fe1e00;stroke-width:1.0583"/>
   <path d="m175.44 84.735 12.016-6.9376c-2.2334-4.0708-4.8243-7.9153-7.7194-11.505l-10.632 8.9209c2.3769 2.9736 4.5082 6.152 6.3355 9.5219z" style="fill:#fe1e00;stroke-width:1.0583"/>
   <path d="m182.54 106.22 13.677-2.4117c-0.68308-4.5984-1.7807-9.0588-3.2267-13.36l-13.041 4.7465c1.1723 3.5498 2.0487 7.2323 2.5905 11.025z" style="fill:#fe1e00;stroke-width:1.0583"/>
   <path d="m181.83 128.59 13.675 2.4112c0.89994-4.4303 1.4012-8.9579 1.5214-13.533h-13.875c-0.11995 3.7616-0.56142 7.4811-1.3219 11.121z" style="fill:#fe1e00;stroke-width:1.0583"/>
   <path d="m173.64 149.15 12.021 6.9401c2.3454-3.8575 4.3394-7.9077 5.9831-12.099l-13.035-4.7449c-1.3674 3.4331-3.0276 6.7463-4.9687 9.9038z" style="fill:#fe1e00;stroke-width:1.0583"/>
   <path d="m159.15 165.61 8.9214 10.631c2.1022-1.7044 4.1289-3.5172 6.0601-5.4482l2e-3 -1e-3c1.2444-1.2445 2.4246-2.5397 3.5755-3.8566l-10.626-8.9157c-0.89046 1.01-1.8023 2.0038-2.76 2.9616l-1e-3 1e-3c-1.645 1.645-3.3763 3.1826-5.1718 4.6276z" style="fill:#fe1e00;stroke-width:1.0583"/>
   <path d="m140.13 176.2 4.746 13.039c4.1927-1.4837 8.2464-3.3366 12.132-5.5123l-6.9355-12.012c-3.1854 1.7718-6.5081 3.2777-9.9426 4.4855z" style="fill:#fe1e00;stroke-width:1.0583"/>
   <path d="m118.76 179.85v13.875h5.1e-4c4.4703-2.1e-4 8.8962-0.40539 13.244-1.1519l-2.4086-13.659c-3.5575 0.60701-7.1782 0.93638-10.835 0.93638z" style="fill:#fe1e00;stroke-width:1.0583"/>
   <path d="m97.375 176.2-4.747 13.042c4.1472 1.4676 8.4525 2.5877 12.88 3.343l2.4092-13.663c-3.6207-0.61432-7.144-1.5268-10.542-2.7218z" style="fill:#fe1e00;stroke-width:1.0583"/>
   <path d="m78.359 165.61-8.9204 10.631c3.4552 2.8043 7.1539 5.3118 11.054 7.4998l6.937-12.015c-3.1973-1.7817-6.2304-3.8282-9.0702-6.1159z" style="fill:#fe1e00;stroke-width:1.0583"/>
   <path d="m63.857 149.16-12.027 6.9438c2.3405 3.8418 5.0173 7.457 7.9685 10.831l10.627-8.9173c-2.4337-2.7588-4.635-5.7189-6.5681-8.8579z" style="fill:#fe1e00;stroke-width:1.0583"/>
   <path d="m55.668 128.59-13.675 2.4112c0.90634 4.4841 2.2136 8.824 3.853 13.001l13.043-4.747c-1.3661-3.4274-2.4562-6.9889-3.221-10.666z" style="fill:#fe1e00;stroke-width:1.0583"/>
   <path d="m54.974 106.22-13.678-2.4117c-0.56246 3.7865-0.86088 7.6594-0.86093 11.602v8e-3c6.3e-5 0.68644 0.03402 1.365 0.05168 2.0474h13.875c-0.02147-0.68203-0.05162-1.3622-0.05168-2.049v-6e-3c5.2e-5 -3.1219 0.23444-6.1879 0.66352-9.1912z" style="fill:#fe1e00;stroke-width:1.0583"/>
   <path d="m62.066 84.735-12.016-6.9376c-2.2018 4.0134-4.0468 8.2468-5.5268 12.649l13.041 4.7465c1.2014-3.6378 2.7025-7.1391 4.5021-10.458z" style="fill:#fe1e00;stroke-width:1.0583"/>
   <path d="m76.339 66.914-8.9173-10.627c-3.5037 3.0447-6.7365 6.3892-9.6521 10.005l10.632 8.9214c2.3958-2.9972 5.0525-5.7733 7.9375-8.2987z" style="fill:#fe1e00;stroke-width:1.0583"/>
   <path d="m96.053 55.09-4.747-13.042c-4.4007 1.6474-8.6119 3.6798-12.596 6.0554l6.9365 12.015c3.2892-1.9738 6.7703-3.6588 10.407-5.0281z" style="fill:#fe1e00;stroke-width:1.0583"/>
   <path d="m118.76 37.091h-4e-3c-4.7623 2.09e-4 -9.417 0.44903-13.945 1.2635l2.4086 13.662c3.7453-0.67751 7.5968-1.0504 11.537-1.0506h3e-3z" style="fill:#fe1e00;stroke-width:1.0583"/>
   <path d="m144.93 72.132 6.936-12.014c-3.2892-1.9738-6.7703-3.6583-10.407-5.0276l-4.7465 13.042c2.8719 1.0914 5.623 2.4276 8.2171 3.9998z" style="fill:#fe1e00;stroke-width:1.0583"/>
   <path d="m158.48 84.133 10.631-8.9204c-2.3957-2.9971-5.052-5.7734-7.937-8.2987l-8.9173 10.627c2.2662 2.0062 4.3476 4.2134 6.2234 6.5924z" style="fill:#fe1e00;stroke-width:1.0583"/>
   <path d="m166.91 99.939 13.04-4.7465c-1.2014-3.6378-2.702-7.1392-4.5015-10.458l-12.03 6.9458c1.3971 2.6239 2.5686 5.3848 3.4913 8.2584z" style="fill:#fe1e00;stroke-width:1.0583"/>
   <path d="m169.27 117.46h13.874c0.0218-0.68416 0.0506-1.3675 0.0506-2.0541 0-3.1221-0.23441-6.1887-0.66352-9.1922l-13.676 2.4117c0.29761 2.2193 0.46561 4.4797 0.46561 6.7805 0 0.68659-0.0229 1.3708-0.0507 2.0541z" style="fill:#fe1e00;stroke-width:1.0583"/>
   <path d="m165.57 134.5 13.036 4.7449c1.3737-3.4491 2.453-7.0152 3.2153-10.664l-13.675-2.4112c-0.62142 2.8511-1.4792 5.639-2.5771 8.3308z" style="fill:#fe1e00;stroke-width:1.0583"/>
   <path d="m156.46 149.1 10.626 8.9168c2.4481-2.7768 4.6396-5.7425 6.5583-8.8635l-12.022-6.9412c-1.5162 2.4249-3.2364 4.7327-5.1625 6.888z" style="fill:#fe1e00;stroke-width:1.0583"/>
   <path d="m143.14 159.7 6.9355 12.013c3.1796-1.7686 6.2189-3.8039 9.077-6.104l-8.9219-10.633c-2.236 1.7787-4.6076 3.3574-7.0905 4.7243z" style="fill:#fe1e00;stroke-width:1.0583"/>
   <path d="m127.18 165.26 2.4086 13.66c3.5941-0.61327 7.1208-1.5179 10.541-2.7208l-4.746-13.04c-2.6632 0.92765-5.407 1.6278-8.2036 2.1006z" style="fill:#fe1e00;stroke-width:1.0583"/>
   <path d="m110.33 165.26-2.4092 13.663c3.5299 0.59891 7.1466 0.92738 10.834 0.92759h3e-3v-13.875h-2e-3c-2.8641-2e-4 -5.6773-0.25312-8.4264-0.71572z" style="fill:#fe1e00;stroke-width:1.0583"/>
   <path d="m94.366 159.71-6.9376 12.016c3.1661 1.7643 6.4906 3.2664 9.9467 4.4819l4.747-13.042c-2.6902-0.93707-5.2839-2.0925-7.7561-3.4556z" style="fill:#fe1e00;stroke-width:1.0583"/>
   <path d="m81.052 149.1-10.627 8.9168c0.89308 1.0124 1.8062 2.0073 2.7616 2.9626 1.6377 1.6376 3.3698 3.1755 5.1718 4.6271l8.9214-10.632c-1.4939-1.1894-2.9296-2.4533-4.2829-3.8065-0.6698-0.66981-1.3142-1.363-1.9446-2.0681z" style="fill:#fe1e00;stroke-width:1.0583"/>
   <path d="m71.93 134.51-13.042 4.747c1.3767 3.454 3.0359 6.7682 4.9682 9.9058l12.027-6.9438c-1.5307-2.4445-2.8564-5.0205-3.9538-7.7091z" style="fill:#fe1e00;stroke-width:1.0583"/>
   <path d="m68.237 117.46h-13.874c0.11938 3.7928 0.55403 7.5122 1.3053 11.124l13.681-2.4123c-0.61517-2.8315-0.99319-5.7421-1.1126-8.7116z" style="fill:#fe1e00;stroke-width:1.0583"/>
   <path d="m70.605 99.939-13.041-4.7465c-1.1723 3.5497-2.0481 7.2324-2.59 11.025l13.676 2.4117c0.40053-2.987 1.056-5.8922 1.9544-8.6904z" style="fill:#fe1e00;stroke-width:1.0583"/>
   <path d="m79.032 84.133-10.631-8.9204c-2.3768 2.9735-4.5077 6.1521-6.335 9.5219l12.029 6.9453c1.421-2.6686 3.0783-5.1899 4.9366-7.5468z" style="fill:#fe1e00;stroke-width:1.0583"/>
   <path d="m92.582 72.132-6.936-12.014c-3.3096 1.9861-6.4187 4.2673-9.3074 6.796l8.9168 10.627c2.2716-2.0111 4.7185-3.8282 7.3267-5.409z" style="fill:#fe1e00;stroke-width:1.0583"/>
   <path d="m109.62 65.678-2.4092-13.662c-3.8501 0.69646-7.5822 1.7263-11.162 3.0742l4.7465 13.042c2.8287-1.075 5.7789-1.8984 8.8243-2.4541z" style="fill:#fe1e00;stroke-width:1.0583"/>
   <path d="m118.76 50.965v13.874h1e-3c3.1192 4.5e-5 6.1671 0.29748 9.1302 0.83819l2.4092-13.661c-3.7463-0.67774-7.5987-1.0511-11.54-1.0511z" style="fill:#fe1e00;stroke-width:1.0583"/>
   <path d="m131.96 81.174 4.747-13.042c-2.8286-1.075-5.779-1.8989-8.8243-2.4546l-2.4092 13.662c2.2406 0.41504 4.4086 1.0323 6.4864 1.8345z" style="fill:#fe1e00;stroke-width:1.0583"/>
   <path d="m143.34 88.168 8.9168-10.627c-2.2715-2.0109-4.7181-3.8283-7.3262-5.409l-6.9427 12.025c1.9063 1.1754 3.6981 2.5182 5.3521 4.0116z" style="fill:#fe1e00;stroke-width:1.0583"/>
   <path d="m151.38 98.626 12.03-6.9453c-1.421-2.6688-3.0782-5.1903-4.9366-7.5473l-10.631 8.9209c1.3395 1.7403 2.5236 3.6043 3.5378 5.5718z" style="fill:#fe1e00;stroke-width:1.0583"/>
   <path d="m155.18 111.04 13.677-2.4112c-0.40055-2.987-1.056-5.8922-1.9544-8.6904l-13.05 4.7496c0.62442 2.0467 1.0686 4.1708 1.3276 6.3521z" style="fill:#fe1e00;stroke-width:1.0583"/>
   <path d="m154.48 123.76 13.675 2.4112c0.6212-2.85 1.0026-5.7618 1.1224-8.7101h-13.886c-0.11964 2.134-0.42946 4.2399-0.91106 6.2988z" style="fill:#fe1e00;stroke-width:1.0583"/>
   <path d="m149.6 135.27 12.021 6.9407c1.5364-2.4572 2.8634-5.033 3.9543-7.7075l-13.051-4.7501c-0.81384 1.9158-1.7933 3.7602-2.9244 5.517z" style="fill:#fe1e00;stroke-width:1.0583"/>
   <path d="m141.31 144.34 8.9209 10.632c1.4892-1.1846 2.9246-2.4473 4.2835-3.806v-5.2e-4c0.67126-0.67126 1.3159-1.3635 1.9451-2.0676l-10.633-8.9219c-0.36573 0.39976-0.73769 0.795-1.1224 1.1798h-1e-3c-1.072 1.072-2.2098 2.0619-3.3931 2.9843z" style="fill:#fe1e00;stroke-width:1.0583"/>
   <path d="m130.64 150.12 4.746 13.039c2.6759-0.9321 5.2681-2.0902 7.753-3.4582l-6.935-12.012c-1.7844 0.96456-3.6465 1.7742-5.564 2.4309z" style="fill:#fe1e00;stroke-width:1.0583"/>
   <path d="m118.76 152.1v13.875h1e-3c2.8436-2.1e-4 5.6593-0.25404 8.4264-0.72192l-2.4086-13.659c-1.9767 0.32872-3.9873 0.50643-6.0172 0.50643z" style="fill:#fe1e00;stroke-width:1.0583"/>
   <path d="m106.87 150.12-4.7465 13.041c2.6485 0.92254 5.3902 1.6276 8.2042 2.1012l2.4092-13.662c-2.0075-0.33269-3.9679-0.82986-5.8668-1.48z" style="fill:#fe1e00;stroke-width:1.0583"/>
   <path d="m96.201 144.34-8.9209 10.631c2.224 1.7707 4.5917 3.3566 7.0864 4.732l6.937-12.015c-1.7917-0.96943-3.495-2.0943-5.1025-3.3481z" style="fill:#fe1e00;stroke-width:1.0583"/>
   <path d="m87.909 135.27-12.025 6.9427c1.5257 2.4365 3.2519 4.7413 5.1682 6.8848l10.631-8.9214c-1.3985-1.5281-2.6572-3.1718-3.775-4.9062z" style="fill:#fe1e00;stroke-width:1.0583"/>
   <path d="m83.03 123.76-13.68 2.4122c0.62323 2.8686 1.4886 5.6538 2.5812 8.3308l13.049-4.7496c-0.81906-1.927-1.4691-3.9322-1.9503-5.9934z" style="fill:#fe1e00;stroke-width:1.0583"/>
   <path d="m82.327 111.04-13.676-2.4112c-0.2975 2.2186-0.46553 4.4783-0.4656 6.7784v5e-3c5e-5 0.68734 0.02427 1.3699 0.05168 2.0516h13.884c-0.03788-0.6807-0.06146-1.3644-0.0615-2.0521v-4e-3c7.3e-5 -1.4788 0.09755-2.9341 0.26768-4.3672z" style="fill:#fe1e00;stroke-width:1.0583"/>
   <path d="m86.126 98.626-12.03-6.9458c-1.3972 2.624-2.5681 5.3852-3.4907 8.2589l13.049 4.7496c0.64344-2.1091 1.4774-4.1337 2.4717-6.0627z" style="fill:#fe1e00;stroke-width:1.0583"/>
   <path d="m94.173 88.168-8.9173-10.627c-2.2662 2.0062-4.3476 4.2133-6.2234 6.5924l10.631 8.9209c1.3554-1.7611 2.8621-3.3993 4.5093-4.8865z" style="fill:#fe1e00;stroke-width:1.0583"/>
   <path d="m105.55 81.174-4.747-13.042c-2.8719 1.0914-5.623 2.4281-8.2171 4.0003l6.9422 12.024c1.8989-1.1708 3.9143-2.1686 6.0219-2.9822z" style="fill:#fe1e00;stroke-width:1.0583"/>
   <path d="m118.76 64.839h-2e-3c-3.1188 1.01e-4 -6.1664 0.29758-9.1292 0.83819l2.4092 13.662c2.18-0.4038 4.4241-0.62523 6.721-0.62528h1e-3z" style="fill:#fe1e00;stroke-width:1.0583"/>
   <path d="m131.04 96.183 6.9432-12.027c-1.8987-1.1707-3.914-2.1686-6.0213-2.9822l-4.747 13.042c1.3429 0.53668 2.6221 1.1969 3.8251 1.9673z" style="fill:#fe1e00;stroke-width:1.0583"/>
   <path d="m137.2 101.98 10.642-8.9292c-1.3553-1.7609-2.8622-3.3988-4.5093-4.886l-8.9302 10.642c1.0268 0.96861 1.9644 2.0297 2.7978 3.1729z" style="fill:#fe1e00;stroke-width:1.0583"/>
   <path d="m140.78 109.45 13.072-4.7578c-0.64347-2.1091-1.4769-4.1338-2.4712-6.0627l-12.033 6.9474c0.59009 1.2334 1.0696 2.5293 1.4325 3.8732z" style="fill:#fe1e00;stroke-width:1.0583"/>
   <path d="m141.48 117.46h13.909c0.0383-0.68253 0.0625-1.3669 0.0625-2.0541 0-1.4796-0.098-2.9355-0.2682-4.3692l-13.696 2.4154c0.0547 0.64464 0.0889 1.2951 0.0889 1.9539 0 0.68867-0.0352 1.3737-0.0966 2.0541z" style="fill:#fe1e00;stroke-width:1.0583"/>
   <path d="m139.46 125 13.064 4.7553c0.82174-1.9344 1.4737-3.939 1.9539-5.9919l-13.694-2.4148c-0.33795 1.2536-0.77929 2.4754-1.324 3.6515z" style="fill:#fe1e00;stroke-width:1.0583"/>
   <path d="m135.18 131.25 10.646 8.9333c1.4034-1.534 2.6608-3.1778 3.7739-4.9067l-12.034-6.9484c-0.70863 1.0323-1.5057 2.0093-2.3854 2.9218z" style="fill:#fe1e00;stroke-width:1.0583"/>
   <path d="m129.26 135.66 6.9422 12.024c1.7861-0.96547 3.4912-2.0868 5.1046-3.3445l-8.9219-10.632c-0.99003 0.73749-2.0361 1.3881-3.1249 1.9529z" style="fill:#fe1e00;stroke-width:1.0583"/>
   <path d="m122.37 137.94 2.4086 13.66c1.999-0.33243 3.9602-0.82781 5.8663-1.4805l-4.746-13.039c-1.1486 0.37846-2.3277 0.66745-3.529 0.8599z" style="fill:#fe1e00;stroke-width:1.0583"/>
   <path d="m115.14 137.94-2.4092 13.663c1.9681 0.32616 3.9778 0.50333 6.0182 0.50333h1e-3v-13.874c-1.2172 0-2.4234-0.10185-3.6101-0.29197z" style="fill:#fe1e00;stroke-width:1.0583"/>
   <path d="m108.25 135.66-6.9448 12.029c1.7783 0.96215 3.641 1.7709 5.5656 2.4298l4.747-13.043c-1.1585-0.38167-2.2848-0.85366-3.3678-1.4154z" style="fill:#fe1e00;stroke-width:1.0583"/>
   <path d="m102.33 131.25-10.647 8.9338c0.36625 0.40018 0.739 0.79484 1.1234 1.1793 1.0692 1.0692 2.2071 2.0599 3.3936 2.9853l8.9225-10.633c-0.88081-0.65613-1.7194-1.3772-2.5053-2.1632-0.0985-0.0985-0.19085-0.20173-0.28733-0.30179z" style="fill:#fe1e00;stroke-width:1.0583"/>
   <path d="m98.05 125-13.071 4.7573c0.81716 1.9226 1.8008 3.7654 2.929 5.5159l12.036-6.9494c-0.72496-1.056-1.3593-2.1674-1.895-3.3238z" style="fill:#fe1e00;stroke-width:1.0583"/>
   <path d="m96.03 117.46h-13.91c0.11935 2.1448 0.43038 4.2492 0.90899 6.2994l13.697-2.4154c-0.34159-1.2669-0.5769-2.5652-0.69608-3.884z" style="fill:#fe1e00;stroke-width:1.0583"/>
   <path d="m96.726 109.45-13.072-4.7578c-0.62441 2.0467-1.0686 4.1707-1.3276 6.3521l13.696 2.4154c0.11671-1.3749 0.35366-2.715 0.70332-4.0096z" style="fill:#fe1e00;stroke-width:1.0583"/>
   <path d="m100.31 101.98-10.642-8.9292c-1.3395 1.7404-2.5236 3.6043-3.5378 5.5718l12.032 6.9469c0.60586-1.2662 1.3278-2.4655 2.1472-3.5894z" style="fill:#fe1e00;stroke-width:1.0583"/>
   <path d="m106.47 96.183-6.9438-12.027c-1.9062 1.1754-3.6977 2.5183-5.3516 4.0116l8.9297 10.643c1.0354-0.97672 2.1617-1.8568 3.3657-2.6277z" style="fill:#fe1e00;stroke-width:1.0583"/>
   <path d="m114.44 93.001-2.4086-13.661c-2.2404 0.41498-4.4088 1.0319-6.4864 1.834l4.747 13.042c1.3263-0.53005 2.7126-0.94021 4.1481-1.2149z" style="fill:#fe1e00;stroke-width:1.0583"/>
   <path d="m118.76 78.715v13.874h1e-3c1.4749 7e-5 2.9154 0.14555 4.3124 0.41289l2.4087-13.662c-2.1802-0.40385-4.4245-0.62522-6.7216-0.62528z" style="fill:#fe1e00;stroke-width:1.0583"/>
  </g>
  <path d="m176.56 169.01c0 6.052-2.404 11.857-6.684 16.137-4.279 4.279-10.083 6.684-16.135 6.684h-2e-3c-6.053 0-11.857-2.404-16.137-6.684s-6.6844-10.085-6.6844-16.137v-2e-3c1e-3 -12.603 10.218-22.819 22.821-22.819h1e-3c12.603 6e-4 22.82 10.217 22.82 22.821z" style="fill:none;stroke-width:1.0583"/>
 </g>
 <path d="m88.546 236.42c-3.5607-3.2227-7.5781-2.7202-10.916-1.0993-0.83008 0.40027-1.2758 0.93251-1.1242 1.3216 0.25804 0.62939 0.82145 0.56353 1.9049 0.32063 2.036-0.46038 4.3357-0.17831 6.1952 1.5046 3.2047 2.9004 3.2925 7.694 0.35626 10.938-2.2022 2.4332-5.5949 2.9612-7.9489 0.83064-1.8199-1.6471-2.1315-3.7284-1.6741-6.3013 0.31024-1.7344-0.41606-2.2838-1.4082-2.1021-0.82345 0.15437-3.6163 2.4848-4.1318 3.1338-0.71051 0.90434-0.29133 1.3557 1.1933 2.3395 1.544 1.0375 1.2828 2.2406 3.6962 4.4248 4.0157 3.6344 10.573 3.3076 14.387-0.90592 3.8135-4.2136 3.6845-10.592-0.52906-14.405zm-15.101-17.079c-3.5345-4.9511-10.128-6.243-14.775-2.9256-4.8425 3.457-5.5668 9.9732-2.0323 14.924s10.128 6.243 14.775 2.9256c4.8425-3.457 5.5669-9.9732 2.0323-14.924zm-6.6313 12.11c-2.5624 1.8293-5.6887 1.5369-7.456-0.93863-2.4338-3.4093-0.14978-8.3836 3.4549-10.957 2.5624-1.8293 5.7104-1.5524 7.4777 0.92312 2.4338 3.4093 0.12807 8.3991-3.4766 10.972zm-7.1056-37.951c-1.284-2.7311-3.7146-3.9142-8.5654-1.8903-2.0191 0.8424-2.6219 2.3081-1.9335 3.9579 0.87323 2.093 2.6075 2.0922 3.5921 0.98757 1.8421-2.0984 3.7459-3.7022 4.4318-2.8898 1.4272 1.6884-5.9627 3.2394-3.803 8.9009-3.6392-5.1888-6.9231-5.4376-9.5825-4.3281-2.1915 0.91432-2.8326 3.8126-1.9388 5.9548 0.89378 2.1423 2.5608 3.297 3.4032 5.3161 0.43148 1.0342 1.0405 4.3649 1.3487 5.1036 0.38011 0.91108 1.0699 1.3171 1.8086 1.0089 0.81258-0.33902 0.59472-0.99978 1.5032-2.5641 0.55575-0.95461 2.3409-1.8728 4.4093-2.7358l2.3885-0.99651c2.0684-0.86296 3.9768-1.4857 5.0462-1.2092 1.7509 0.45481 1.9237 1.4235 3.081 0.94061 0.64023-0.26707 0.83688-1.043 0.45677-1.9541-0.52394-1.2558-0.99831-1.8385-1.4298-2.8727-0.44175-1.0588-0.62488-2.0521-1.0358-3.037-0.38011-0.91108-1.0699-1.3171-1.7101-1.05-1.1573 0.48284-0.59048 1.2871-1.499 2.8514-0.49835 0.81502-1.869 1.6181-2.7944 2.0332-1.1717 0.51774-1.6131 0.15262-1.5234-1.1568 0.21788-3.7046 6.8382-5.0212 4.3462-10.371zm-6.8262 13.227c-3.2011 1.3355-5.1116 1.8146-7.0792-1.2384-0.99407-1.5511-0.93536-3.2813 0.41894-3.8463 2.487-1.0376 5.185 1.4794 6.9226 4.3971 0.20335 0.34881 0.15622 0.51302-0.26238 0.68767zm1.7495-37.454c-0.61313-2.955-3.9759-4.1948-9.1646-3.3555-2.1598 0.34936-3.087 1.6345-2.8016 3.3992 0.36214 2.2388 2.049 2.6416 3.2636 1.7964 2.2841-1.5857 5.779-3.2051 6.2569-2.2554 0.83856 1.6752-6.8379 2.6737-6.7028 8.3547-3.032-4.3745-8.3392-8.1107-10.236-7.804-0.79015 0.12781-1.2046 0.57324-1.047 1.5478 0.17468 1.0799 0.47912 1.6252 0.66232 2.7578 0.17894 1.1062 0.06196 1.7198 0.18978 2.5099 0.15764 0.97453 0.73398 1.53 1.5241 1.4022 0.86917-0.14059 1.0257-1.6795 2.0587-2.1439 1.2615-0.55542 4.0445-0.0596 6.5943 5.1767 0.20412 0.42645 0.04957 0.64064-0.42452 0.71732-2.1598 0.34936-4.2397 0.52365-5.2154 6e-3 -1.597-0.8498-1.7604-1.5261-2.6296-1.3855-0.79015 0.12782-1.162 0.83663-1.0044 1.8112 0.17468 1.0799 0.49616 1.7306 0.67936 2.8632 0.17894 1.1062 0.13013 2.1412 0.25794 2.9313 0.15764 0.97452 0.73398 1.53 1.5241 1.4022 0.86917-0.1406 0.81107-0.83392 2.0587-2.1439 0.76266-0.79905 2.7125-1.2766 4.9249-1.6345l2.5548-0.41326c2.2124-0.35789 4.2134-0.51939 5.1891-2e-3 1.597 0.84981 1.5396 1.8321 2.7775 1.6318 0.6848-0.11077 1.0566-0.81958 0.899-1.7941-0.21728-1.3433-0.54302-2.0203-0.72196-3.1265-0.1832-1.1326-0.13013-2.1412-0.30055-3.1947-0.15764-0.97452-0.73398-1.53-1.4188-1.4192-1.2379 0.20025-0.87382 1.1144-2.1214 2.4243-0.73632 0.79479-2.6335 1.2638-4.3191 1.5365-0.36874 0.0597-0.47758-0.11194-0.48455-0.48921 0.0047-2.8116 1.7035-4.0054 3.45-5.0717 2.195-1.301 4.4768-2.3999 3.7265-6.0354zm2.483-34.597c1.1024-4.6743-1.2776-7.9495-4.309-10.09-0.75137-0.53358-1.4327-0.66685-1.7002-0.34616-0.42652 0.5299-0.09677 0.99145 0.63917 1.8229 1.3864 1.5606 2.2499 3.7105 1.6742 6.1516-0.99218 4.2069-5.1474 6.5987-9.4062 5.5942-3.1941-0.75333-5.2949-3.4692-4.566-6.5595 0.56346-2.3891 2.2355-3.6669 4.7093-4.5089 1.6686-0.56592 1.7989-1.4672 1.1607-2.2482-0.53284-0.64651-3.9222-1.9667-4.7395-2.1047-1.135-0.18545-1.3278 0.39957-1.4724 2.1747-0.16291 1.8531-1.3425 2.2054-2.0897 5.3735-1.2433 5.2716 2.2095 10.856 7.7408 12.16 5.5313 1.3045 11.054-1.8886 12.359-7.4199zm7.6628-21.471c2.6286-5.486 0.57576-11.884-4.5734-14.351-5.3657-2.5709-11.422-0.05845-14.05 5.4276-2.6286 5.486-0.57576 11.884 4.5734 14.351 5.3657 2.571 11.422 0.0585 14.05-5.4275zm-13.807 0.0413c-2.8392-1.3604-4.093-4.2392-2.7787-6.9822 1.81-3.7776 7.2689-4.1798 11.263-2.266 2.8392 1.3604 4.117 4.2507 2.8027 6.9937-1.81 3.7776-7.293 4.1682-11.287 2.2544zm28.023-22.027c0.34917-0.40352 0.17805-0.93971-0.17194-1.5954l-5.8935-11.415c-0.59638-1.1864-0.41636-1.3129 0.95791-0.6177l3.5338 1.7877c2.0238 1.0455 4.0111 1.8478 4.2404 2.9284 0.37369 1.77-0.41623 2.3566 0.53204 3.1772 0.52457 0.45392 1.3067 0.28396 1.9527-0.46255 0.89039-1.029 1.2004-1.7134 1.9336-2.5608 0.75072-0.86756 1.7327-1.6762 2.431-2.4832 0.64597-0.74651 0.70182-1.545 0.17724-1.9989-0.94827-0.82055-1.4154 0.04545-3.2207-0.07011-1.1023-0.07174-3.2467-0.69244-5.3228-1.6775l-2.4284-1.1487c-2.0761-0.98502-4.1507-1.6864-4.3801-2.7669-0.37369-1.77 0.73822-3.1365-0.12934-3.8872-0.5044-0.43646-1.0111-0.38096-1.7269 0.44624l-2.0252 2.3404c-3.4917 4.0352-1.7435 3.3604 0.616 7.4838l3.7889 6.6305c0.32709 0.60059 0.18742 0.762-0.43375 0.54203l-7.2872-2.4246c-4.3226-1.447-4.6932-2.6498-6.7358-0.28919-0.38409 0.44387-1.82 1.777-2.3437 2.3823-0.64597 0.74651-0.70181 1.545-0.09653 2.0687 0.86756 0.75072 1.8584-0.72055 3.6637-0.605 1.1023 0.07174 2.3094 1.8572 3.5246 3.7556l1.4508 2.2786c1.2152 1.8984 2.2303 3.9058 2.4596 4.9863 0.37369 1.77-0.41622 2.3566 0.53204 3.1772 0.52457 0.45392 1.3067 0.28395 1.9527-0.46255 0.89039-1.029 1.1131-1.6125 1.4972-2.0564 0.40155-0.46404 1.1216-0.97 1.82-1.777 0.64597-0.7465 0.70181-1.545 0.17724-1.9989-0.94826-0.82055-1.4154 0.04545-3.2207-0.07011-1.1023-0.07174-2.2919-1.8774-3.5246-3.7556l-2.1464-3.2687c-0.27587-0.41513-0.15638-0.594 0.28864-0.45589l11.971 3.9023c0.63591 0.16216 1.2369 0.36466 1.5861-0.03885zm24.658-21.284c0.45443-0.27971 0.45263-0.84254 0.31623-1.5732l-2.1844-12.66c-0.21162-1.3109-2e-3 -1.3774 1.0994-0.30075l2.8319 2.7684c1.6152 1.6062 3.2689 2.9694 3.1624 4.0689-0.17636 1.8004-1.1062 2.1221-0.44891 3.19 0.36363 0.59076 1.1607 0.6641 2.0014 0.14663 1.1588-0.71326 1.6604-1.2726 2.6147-1.86 0.97702-0.60138 2.1568-1.0769 3.0657-1.6363 0.8407-0.51746 1.1343-1.2621 0.77066-1.8529-0.65732-1.0679-1.3634-0.38266-3.0502-1.0362-1.0296-0.40018-2.8877-1.6375-4.5711-3.2018l-1.9701-1.8264c-1.6834-1.5642-3.4507-2.8575-3.3441-3.957 0.17637-1.8004 1.648-2.7689 1.0466-3.7459-0.34964-0.56804-0.84955-0.66762-1.7811-0.09422l-2.6357 1.6223c-4.5443 2.7971-2.6741 2.6798-1.6651 7.3222l1.6176 7.4635c0.13119 0.67118-0.0506 0.78307-0.57677 0.38635l-6.2196-4.5055c-3.6866-2.681-3.678-3.9395-6.3364-2.3032-0.49988 0.30768-2.2704 1.1469-2.9521 1.5664-0.8407 0.51746-1.1343 1.2621-0.71472 1.9438 0.60138 0.97703 1.9891-0.12779 3.6759 0.52577 1.0296 0.40018 1.6433 2.4662 2.2308 4.6423l0.69767 2.6096c0.5875 2.1761 0.95129 4.3959 0.84477 5.4954-0.17637 1.8004-1.1062 2.1221-0.44892 3.19 0.36363 0.59076 1.1607 0.6641 2.0014 0.14663 1.1588-0.71326 1.5468-1.2027 2.0467-1.5104 0.5226-0.32167 1.3616-0.58743 2.2704-1.1469 0.84071-0.51746 1.1343-1.2621 0.77066-1.8529-0.65732-1.0679-1.3634-0.38266-3.0502-1.0362-1.0296-0.40018-1.6206-2.4801-2.2308-4.6423l-1.0631-3.7632c-0.13816-0.47891 0.02966-0.61352 0.41248-0.34788l10.242 7.3246c0.55762 0.34603 1.0698 0.72004 1.5242 0.44033zm26.266-11.713c6.5364-1.888 8.0267-6.1509 6.0629-11.027-1.6204-3.9754-2.2418-5.9343-1.6014-7.5634 0.65114-1.6877 1.3028-1.9315 1.0585-2.7774-0.22208-0.769-0.97058-1.0527-1.919-0.77874-1.051 0.30356-1.6582 0.70113-2.7604 1.0195-1.0766 0.31096-2.1099 0.38725-2.8789 0.60937-0.94842 0.27395-1.4303 0.91303-1.2082 1.682 0.24437 0.84587 0.92559 0.70465 2.3764 1.7853 0.91819 0.67902 1.4906 2.18 2.7122 6.4094 1.3179 4.5627 0.669 7.0274-2.612 7.9751-3.3323 0.96251-5.1954-0.7766-6.5133-5.3393-1.192-4.1269-1.556-5.7714-1.123-6.8685 0.65113-1.6877 1.3028-1.9315 1.0584-2.7774-0.22216-0.76897-0.97058-1.0527-1.919-0.77874-1.051 0.30356-1.6582 0.70113-2.7604 1.0195-1.0766 0.31096-2.1099 0.38725-2.8788 0.60937-0.94842 0.27394-1.4303 0.91303-1.2082 1.682 0.24438 0.84587 0.9256 0.70465 2.3764 1.7853 1.3773 1.0185 1.907 2.9484 2.678 7.2524 0.93852 5.1721 4.5236 7.9691 11.06 6.0811zm34.768-3.3662c0.47444-0.20105 0.5353-0.8435 0.50576-1.8302l-0.31855-10.641c-0.0671-2.2402 0.0331-4.2451 0.67344-5.1452 1.0503-1.4729 1.7421-1.5469 1.7158-2.427-0.024-0.80007-0.67838-1.2609-1.6651-1.2314-1.0934 0.03273-1.247 0.25087-2.2605 0.28121-0.98675 0.02954-1.4732-0.16944-2.2732-0.14549-0.98675 0.02954-1.6124 0.52871-1.5885 1.3288 0.0264 0.88007 0.72133 0.91266 1.8579 2.32 0.69307 0.86011 0.91292 2.8555 0.98002 5.0957l0.12934 4.3204c0.01 0.32004-0.12137 0.40403-0.34191 0.17039l-10.313-11.917c-0.44267-0.5206-0.96454-1.0121-1.8446-0.9858-1.0934 0.03274-1.247 0.25088-2.2605 0.28121-0.98675 0.02954-1.4732-0.16944-2.2732-0.14549-0.98674 0.02954-1.6124 0.5287-1.5885 1.3288 0.0264 0.88007 0.72134 0.91265 1.8579 2.32 0.69307 0.86011 0.91292 2.8555 0.98002 5.0957l0.0774 2.5869c0.0671 2.2402-0.0331 4.2451-0.67344 5.1452-1.0503 1.4729-2.0168 1.2882-1.9793 2.5417 0.0208 0.69339 0.67518 1.1543 1.6619 1.1247 1.3601-0.04071 1.5404-0.25966 2.5272-0.2892 1.0134-0.03034 1.4732 0.16944 2.5399 0.13751 0.98674-0.02954 1.6124-0.52871 1.5917-1.2221-0.0375-1.2534-0.99121-1.0113-2.1278-2.4187-0.69307-0.86011-0.91301-2.8555-0.98002-5.0957l-0.0774-2.5869c-0.0399-1.3334 2e-3 -2.6159 0.11356-3.34 0.0414-0.40163 0.1747-0.40562 0.42351-0.11945 4.6643 5.1188 12.481 13.907 13.171 14.66 0.71814 0.80598 1.2579 1.0034 1.759 0.80151zm8.9261 0.09913c1.341 0.23062 2.0872 0.14235 3.1916 0.33227 1.1307 0.19444 2.0674 0.57211 3.1192 0.75298 0.97291 0.16731 1.6854-0.19747 1.8029-0.88114 0.21253-1.2359-0.77026-1.1883-1.6042-2.7936-0.50815-0.98078-0.32678-2.98 0.0531-5.1888l0.43862-2.5506c0.37983-2.2088 0.87674-4.1537 1.6833-4.9084 1.3223-1.2345 2.015-1.1695 2.1642-2.0373 0.13565-0.78884-0.41402-1.3707-1.3869-1.538-1.0781-0.1854-1.7979-0.09261-2.9286-0.28705-1.1044-0.18992-2.0674-0.57211-2.8563-0.70776-0.9729-0.16731-1.6854 0.19747-1.821 0.98632-0.14922 0.86773 0.5254 1.0379 1.3593 2.6432 0.50815 0.98078 0.32678 2.98-0.0531 5.1888l-0.43862 2.5506c-0.37983 2.2088-0.87675 4.1537-1.6833 4.9084-1.3223 1.2345-2.2327 0.86138-2.4452 2.0972-0.11757 0.68367 0.43211 1.2655 1.405 1.4328zm17.09 3.8803c1.2838 0.4511 2.4356 0.71442 3.0649 0.93554 1.0069 0.3538 1.9695 0.83346 2.9764 1.1873 1.1076 0.38918 1.7301-0.01424 1.9247-0.56802 0.41572-1.1831-0.56123-1.3001-1.1157-3.0221-0.33724-1.0519 0.17493-2.9928 0.91791-5.1072l1.9561-5.6474c0.52185-1.4852 1.4566-1.892 2.6901-1.4586 1.2586 0.44225 1.9655 1.0865 2.2804 3.0071 0.23603 1.5818 0.28295 2.3335 1.1402 2.5499 0.98307 0.26059 1.6362-1.5178 2.1629-3.8214 0.57223-2.5138 0.12528-3.5758-1.2088-4.0446-1.3341-0.46878-3.3717-0.22324-7.1727-1.5588-3.801-1.3356-5.2371-2.8018-6.5712-3.2705-1.3341-0.46878-2.3471 0.08021-3.4732 2.3994-1.0301 2.1267-1.6329 3.9228-0.70291 4.3344 0.80415 0.3674 1.311-0.18978 2.4846-1.2762 1.3791-1.2688 2.3513-1.3797 3.5344-0.96393 1.3341 0.46879 1.7158 1.3947 1.2116 2.8295l-2.0064 5.6297c-0.74299 2.1145-1.5574 3.9493-2.4786 4.5588-1.5097 0.99665-2.3451 0.47685-2.7608 1.6599-0.19458 0.55378 0.0387 1.2579 1.1463 1.6471zm16.299 6.7241c1.1914 0.65742 1.9252 0.81859 2.9064 1.36 1.0045 0.5543 1.7657 1.2181 2.7001 1.7338 0.86433 0.47695 1.657 0.36585 1.9922-0.24152 0.60586-1.0979-0.33823-1.3751-0.59991-3.1651-0.15861-1.0932 0.66803-2.9225 1.7508-4.8848l1.2504-2.2659c1.0828-1.9623 2.1898-3.6369 3.1992-4.0855 1.6539-0.73293 2.287-0.4445 2.7124-1.2154 0.38673-0.7008 0.0581-1.4307-0.80622-1.9076-0.95776-0.52852-1.6682-0.67679-2.6727-1.2311-0.98113-0.54141-1.7657-1.2181-2.4665-1.6049-0.86432-0.47695-1.657-0.36585-2.0437 0.33496-0.42539 0.77088 0.1562 1.1528 0.41787 2.9427 0.15861 1.0932-0.66803 2.9225-1.7508 4.8848l-1.2504 2.2659c-1.0828 1.9623-2.1898 3.6369-3.1992 4.0855-1.6539 0.73293-2.3917 0.08199-2.9976 1.1799-0.33516 0.60736-7e-3 1.3372 0.85778 1.8142zm17.801 11.933c3.7493 3.0012 7.7289 2.2564 10.963 0.43636 0.80432-0.44979 1.217-1.008 1.0421-1.3873-0.29565-0.61262-0.85405-0.51276-1.9209-0.20471-2.0044 0.58281-4.317 0.4405-6.275-1.1268-2.3329-1.8674-3.578-4.7095-2.9691-6.9219 0.56727-2.0749 1.5463-1.2913 2.492-0.63685 2.4121 1.7257 2.9702 2.8218 2.7615 4.0218-0.21283 1.1625-0.13395 2.2167 0.82018 2.6045 0.77495 0.31272 1.867-0.79536 3.0259-2.6701 0.93378-1.5081 1.3635-3.2831 0.25948-4.1668-1.3123-1.0504-2.0629 1.2536-5.4747-1.9558-1.0581-0.98366-1.7705-1.5881-0.17009-2.7335 1.9171-1.1995 4.2672-1.2322 6.121 0.2517 1.9163 1.5339 2.3533 3.5925 2.0526 6.1883-0.20465 1.75 0.55358 2.2544 1.5328 2.013 0.81259-0.20398 3.4592-2.6992 3.9344-3.3782 0.65445-0.94569 0.20871-1.3708-1.3328-2.263-1.604-0.94214-1.4161-2.1588-3.9573-4.1929-4.2284-3.3846-10.754-2.6614-14.305 1.7753-3.5514 4.4367-3.0364 10.795 1.4003 14.347zm14.685 14.482c2.9439 3.5551 7.8104 6.211 11.386 3.2501 2.7537-2.2802 2.4706-5.7178-0.17431-9.8322-2.713-4.1967-3.1252-5.6566-2.2005-6.4224 1.1508-0.95293 3.3489-0.34826 5.0165 1.6656 1.8888 2.281 1.8731 4.0608 0.89689 5.9776-0.72184 1.4291-1.0889 1.9062-0.50676 2.5674 0.61613 0.70223 1.4233 0.38021 2.7173-0.48345 2.1635-1.4451 3.2202-1.8005 2.302-3.1186-1.3026-1.8659-0.80965-3.2786-3.3111-6.2994-3.0119-3.6373-7.7315-5.2371-10.835-2.6676-2.8975 2.3993-2.302 5.3357 0.99883 10.535 2.3117 3.6283 2.5672 4.9409 1.5808 5.7577-0.98639 0.8168-2.9094 0.71174-5.0534-1.8776-2.1271-2.5687-2.2114-5.097-1.3033-7.096 0.83231-1.7977 1.1724-2.3911 0.63136-3.0862-0.62608-0.79792-2.2838-0.49905-4.0922 0.99842-1.9934 1.6506-1.8967 2.4366-1.5115 3.7804 0.41223 1.46 1.3478 3.803 3.4578 6.3511zm19.572 35.79c2.0248 6.4953 6.3181 7.8958 11.152 5.8301 3.9405-1.7035 5.886-2.3658 7.5281-1.7598 1.701 0.61557 1.9584 1.262 2.799 0.99992 0.76416-0.2382 1.0321-0.99247 0.73829-1.9349-0.32554-1.0444-0.73578-1.6431-1.0772-2.7384-0.33346-1.0698-0.43145-2.1013-0.66966-2.8654-0.29379-0.94246-0.94285-1.4108-1.707-1.1726-0.84057 0.26203-0.68507 0.94018-1.735 2.4133-0.6596 0.93224-2.1482 1.536-6.3511 2.8462-4.534 1.4134-7.0118 0.81638-8.0281-2.444-1.0322-3.3114 0.66738-5.2106 5.2014-6.624 4.101-1.2784 5.7375-1.6768 6.8434-1.2669 1.701 0.61557 1.9584 1.262 2.799 0.99992 0.76416-0.2382 1.0321-0.99245 0.73829-1.9349-0.32554-1.0444-0.73578-1.6431-1.0772-2.7384-0.33346-1.0698-0.43145-2.1013-0.66967-2.8654-0.29379-0.94247-0.94286-1.4109-1.707-1.1727-0.84057 0.26204-0.68507 0.94019-1.735 2.4133-0.98939 1.3984-2.9077 1.9684-7.1946 2.8297-5.1513 1.0469-7.8724 4.6898-5.8476 11.185zm4.0953 34.689c0.21098 0.47013 0.85456 0.51747 1.8405 0.46722l10.632-0.54192c2.2383-0.11408 4.2449-0.0561 5.1582 0.56526 1.4946 1.0192 1.5832 1.7092 2.4625 1.6644 0.79939-0.0408 1.2464-0.70471 1.1962-1.6906-0.0557-1.0925-0.27701-1.2415-0.32862-2.2541-0.0503-0.98591 0.13847-1.4764 0.0977-2.2758-0.0503-0.9859-0.56246-1.601-1.3619-1.5602-0.87933 0.0448-0.89731 0.74033-2.2805 1.9062-0.84537 0.71098-2.8357 0.97269-5.074 1.0868l-4.3167 0.22003c-0.31975 0.0163-0.40649-0.11286-0.1775-0.33826l11.697-10.561c0.5112-0.45351 0.99167-0.98559 0.94685-1.8649-0.0557-1.0925-0.277-1.2415-0.32862-2.2541-0.0503-0.98591 0.13848-1.4764 0.0977-2.2758-0.0503-0.9859-0.56246-1.601-1.3619-1.5602-0.87933 0.0448-0.89731 0.74033-2.2805 1.9062-0.84537 0.71098-2.8357 0.97269-5.074 1.0868l-2.5847 0.13174c-2.2383 0.11409-4.2449 0.0561-5.1582-0.56526-1.4946-1.0192-1.3303-1.9893-2.5827-1.9254-0.6928 0.0353-1.1398 0.69927-1.0896 1.6852 0.0693 1.359 0.29194 1.5346 0.34219 2.5205 0.0516 1.0126-0.13846 1.4764-0.0841 2.5422 0.0503 0.98591 0.56246 1.601 1.2553 1.5657 1.2524-0.0638 0.99031-1.0122 2.3735-2.1781 0.84538-0.71098 2.8357-0.97269 5.074-1.0868l2.5847-0.13175c1.3323-0.0679 2.6154-0.0532 3.3416 0.0434 0.40241 0.0329 0.4092 0.16615 0.12838 0.42089-5.0198 4.7708-13.642 12.771-14.381 13.476-0.79072 0.7349-0.97673 1.2787-0.7644 1.7755zm0.0884 8.9257c-0.2024 1.3456-0.0985 2.0897-0.26516 3.1978-0.17065 1.1345-0.52857 2.079-0.68731 3.1343-0.14683 0.97621 0.23283 1.6809 0.91882 1.784 1.24 0.18653 1.1718-0.79505 2.7593-1.6625 0.9699-0.52863 2.9725-0.38928 5.1888-0.0559l2.5592 0.38495c2.2163 0.33336 4.1712 0.78931 4.9427 1.5799 1.262 1.296 1.2116 1.99 2.0823 2.1209 0.79152 0.11906 1.3618-0.44235 1.5085-1.4189 0.16272-1.0818 0.0548-1.7995 0.22548-2.934 0.16668-1.1081 0.52856-2.079 0.64762-2.8705 0.14684-0.97621-0.23283-1.6809-1.0244-1.7999-0.87068-0.13095-1.0266 0.54709-2.6141 1.4145-0.96988 0.52864-2.9725 0.38929-5.1888 0.0559l-2.5592-0.38495c-2.2163-0.33336-4.1712-0.78932-4.9427-1.5799-1.262-1.296-0.90808-2.2141-2.1481-2.4006-0.68599-0.10318-1.2562 0.4586-1.403 1.4348zm-3.5121 17.17c-0.42732 1.2919-0.66932 2.4484-0.87878 3.0816-0.33515 1.0132-0.79694 1.9846-1.1321 2.9978-0.36866 1.1146 0.0462 1.7295 0.60348 1.9138 1.1906 0.3938 1.2895-0.58515 3.001-1.1713 1.0454-0.35681 2.9955 0.11962 5.1233 0.82343l5.6825 1.8515c1.4945 0.49434 1.9185 1.4214 1.508 2.6627-0.41893 1.2666-1.0501 1.9852-2.9645 2.3355-1.5772 0.26521-2.3279 0.326-2.5284 1.1871-0.24239 0.98772 1.5477 1.6079 3.8607 2.0919 2.524 0.5257 3.5775 0.0592 4.0216-1.2834 0.44407-1.3426 0.16093-3.3753 1.4261-7.2003 1.2652-3.825 2.7046-5.288 3.1486-6.6305 0.44407-1.3425-0.12355-2.3453-2.4632-3.4282-2.1454-0.99063-3.9522-1.5602-4.3466-0.62273-0.35248 0.81079 0.21396 1.3073 1.3219 2.4606 1.294 1.3554 1.4228 2.3254 1.029 3.5159-0.44407 1.3426-1.3628 1.7412-2.8067 1.2636l-5.6658-1.9022c-2.1278-0.7038-3.9774-1.4842-4.6038-2.394-1.0244-1.491-0.52007-2.3359-1.7106-2.7297-0.55728-0.18432-1.257 0.062-1.6256 1.1765zm-10.225 23.021c-2.3891 4.1661-1.0414 7.9839 1.2541 10.9 0.56809 0.72562 1.1831 1.0476 1.531 0.81645 0.55987-0.38634 0.37537-0.92274-0.093-1.9295-0.88402-1.891-1.0989-4.1979 0.14874-6.3736 1.4866-2.5923 4.1035-4.2595 6.3832-3.9979 2.1375 0.24155 1.5136 1.3294 1.0124 2.3644-1.3344 2.6488-2.3316 3.3687-3.5494 3.347-1.1814-0.0316-2.211 0.20841-2.4475 1.2108-0.18987 0.81382 1.0729 1.7225 3.1035 2.5794 1.6338 0.69084 3.4537 0.84255 4.1571-0.38415 0.83618-1.4581-1.5559-1.8457 1.0909-5.7103 0.80931-1.1968 1.297-1.9936 2.6748-0.58828 1.48 1.7099 1.8736 4.027 0.69228 6.087-1.2211 2.1294-3.188 2.8776-5.7992 2.9795-1.7607 0.0668-2.1425 0.89356-1.7534 1.8241 0.32644 0.77158 3.1989 3.0032 3.9429 3.3683 1.0351 0.5013 1.3866-4e-3 2.0312-1.6648 0.68437-1.7297 1.9154-1.7312 3.5347-4.5549 2.6944-4.6985 0.97659-11.035-3.9533-13.862-4.9299-2.8271-11.134-1.3408-13.961 3.5892zm-7.0294 11.637c-0.9223 1.0005-0.94099 2.3985-4.7574 5.5936-5.1669 4.3452-8.4291 10.954-2.1321 16.759 4.5511 4.1956 10.746 3.7738 14.761-0.58117 1.9169-2.0794 2.6232-3.7508 4.4316-5.7125 0.75955-0.82391 1.7845-1.6208 2.327-2.2094 0.66913-0.72583 0.75005-1.5222 0.16154-2.0647-0.64736-0.59679-1.1568-0.12292-2.9576-0.29518-1.0995-0.10635-2.6792-1.345-4.3271-2.8641l-1.9028-1.7542c-1.6478-1.5191-3.0106-2.9931-3.2058-4.0803-0.31786-1.7808 0.49011-2.3424-0.43188-3.1923-0.51004-0.4702-1.2972-0.3249-1.9663 0.40092zm5.5093 11.974c3.1583 2.9116 3.318 4.9821 1.4734 6.983-3.1286 3.3937-8.6385 2.0883-12.013-1.0222-2.609-2.4052-3.0504-6.2958 0.31233-9.0382 2.7056-2.187 5.6757-1.1182 10.227 3.0774z" style="fill:url(#linearGradient39);stroke-width:3.624" aria-label="CORK  COMMUNITIES  UNITED"/>
 <path d="m62.724 139.99 43.024 5.7842 14.344-16.972 28.862-0.47208 13.09 5.7011 20.376-10.639 20.959 6.475 8.6701 13.894 44.347-15.331 4.1951 21.816-0.42245 15.905-50.558 0.25916-8.1078 17.926-22.117 10.48-25.466-10.331-20.297 7.6296-20.549-4.4399-8.3169-11.92-44.53 10.768-3.5983-29.079z" style="fill:#ffffff"/>
 <g transform="matrix(.82858 .38965 -.38965 .82858 97.199 -36.932)">
  <path d="m171.77 106.18c-6.5349-0.36025-13.473 0.80476-20.285 4.1094-14.276 6.9255-20.424 20.12-25.354 30.422-4.9298 10.302-8.7828 17.601-15.027 20.684-17.666 8.72-66.473 23.145-66.473 23.145l5.5684 19.27s47.379-13.37 69.781-24.428c13.79-6.8067 19.38-19.848 24.244-30.012 4.8636-10.164 8.86-17.563 16.014-21.033 7.8056-3.7865 13.839-2.7058 19.867 0.54688 6.0279 3.2527 11.316 9.4043 13.549 13.896 1.9817 3.9865 3.4833 12.362 2.2402 19.697-1.2431 7.335-4.4388 13.207-10.59 16.518-6.1651 3.3186-14.769 3.1815-25.541 2.1719-10.772-1.0096-23.37-2.987-36.184 1.8594-12.643 4.7818-26.586 15.744-38.836 25.75-12.25 10.006-22.008 19.062-22.008 19.062l13.643 14.705s9.3552-8.6777 21.055-18.234c11.7-9.5566 26.541-19.987 33.242-22.521 6.5301-2.4698 16.039-1.698 27.217-0.65039 11.178 1.0476 24.366 2.2769 36.92-4.4805 12.568-6.7649 18.881-19.167 20.857-30.828 1.9762-11.661 0.40774-23.004-4.0527-31.977-4.2091-8.4674-11.595-17.014-21.986-22.621-5.1956-2.8036-11.326-4.6905-17.861-5.0508z" style="color:#000000;fill:url(#linearGradient40);stroke-width:2.1167;stroke:#fdfdfd"/>
  <path d="m109.02 134.78c-0.74106 0.34511-1.4814 0.71514-2.2199 1.1119-14.428 7.7518-23.278 21.786-25.162 36.869 8.5784-2.9161 17.082-5.9864 23.665-8.7588 2.5498-4.2332 6.2355-7.8863 10.99-10.44 6.2602-3.3634 13.859-3.4935 23.521-2.842 9.6621 0.6515 21.007 2.2453 33.025-1.385 6.4031-1.934 12.312-5.6584 18.606-10.157-2.7119-3.7808-6.8197-7.8563-11.345-10.298-1.9593-1.0572-3.9208-1.8797-5.9434-2.3811-3.1349 1.883-5.7669 3.2266-7.1191 3.635-6.7342 2.034-15.548 1.2684-25.875 0.57211-9.6813-0.6528-21.028-1.1028-32.143 4.0739zm115.13-50.808s-10.449 10.557-23.144 21.766c-2.7408 2.4198-5.5869 4.8517-8.4347 7.2163 6.0981 3.8258 11.027 8.6692 14.746 13.815 2.3662-1.9954 4.7077-4.0027 6.9641-5.9949 13.285-11.73 24.129-22.695 24.129-22.695zm-140.63 109.51c0.54723 1.7151 1.1827 3.415 1.9333 5.0875 1.0531 2.3465 2.2952 4.559 3.6882 6.6407 5.2084-4.1859 10.643-8.3868 16.098-12.109-0.54787-0.88147-1.0575-1.7887-1.4867-2.7449-0.52547-1.1708-0.93671-2.365-1.2963-3.5665-6.1456 2.3272-12.641 4.5959-18.936 6.6921zm138.12-64.794c-3.2568 1.5555-6.6822 3.2455-10.126 4.9813 0.0307 0.061 0.0649 0.12206 0.0952 0.18307 2.9208 5.8756 4.5922 12.77 4.8498 20.102 19.031-9.7631 39.238-18.586 39.238-18.586l-7.8437-18.461s-11.679 4.8394-26.213 11.781zm-27.835 14.468c-5.7223 3.299-11.072 6.6605-15.509 9.9287-12.35 9.0954-18.683 21.339-24.004 31.069-5.3206 9.7297-9.5554 16.375-15.053 19.105-4.779 2.3733-10.191 2.94-15.387 2.0394-5.7029 3.4022-12.992 8.5416-19.949 13.896 13.065 7.8023 29.743 9.2378 44.258 2.0292 12.469-6.1921 18.349-17.608 23.73-27.447 5.3809-9.8399 10.336-18.677 18.299-24.541 1.4367-1.0581 3.1243-2.1786 4.9108-3.3218 0.30955-1.1085 0.58253-2.2452 0.78434-3.436 1.2085-7.1312-0.18193-15.212-2.0809-19.321z" style="color:#000000;fill:url(#linearGradient41);stroke-width:2.1167;stroke:#fdfdfd"/>
 </g>
 <g transform="matrix(.91562 0 0 .91562 17.958 7.4948)">
  <path d="m107.96 141.14q-0.0875 0.0126-0.17893-0.013-0.0914-0.0256-0.16557-0.0722-0.0742-0.0466-0.14225-0.10931-0.057-0.0677-0.0918-0.14526-0.0398-0.0887-0.0463-0.1923l-0.74348-8.1892q-0.0142-0.18007 0.0852-0.34449 0.0994-0.16443 0.25458-0.23404l0.31042-0.13924 0.31041-0.13923q0.1663-0.0746 0.36015-0.0284 0.18887 0.0351 0.29786 0.15937l5.6215 6.0013q0.073 0.0738 0.11282 0.16246 0.0497 0.11087 0.0501 0.23054 4e-4 0.11966-0.0535 0.23705-0.0428 0.11241-0.12765 0.19042-0.0738 0.073-0.16247 0.11283-0.16629 0.0746-0.35517 0.0395-0.17779-0.0401-0.30284-0.17045l-0.9893-1.0477-3.6363 1.631 0.12457 1.4356q0.0142 0.18008-0.0852 0.3445-0.0883 0.15945-0.25457 0.23404-0.0998 0.0447-0.1923 0.0463zm0.29597-3.2888 2.9046-1.3028-3.3519-3.5836zm12.301-8.1843q-0.0322 0.0209-0.0644 0.0419-0.0235 6e-3 -0.0557 0.0271-0.0235 6e-3 -0.0588 0.0153-0.17637 0.046-0.35373-8e-3 -0.16867-0.0691-0.26422-0.19484-0.0746-0.0936-0.18754-0.1897-0.10425-0.11096-0.34751-0.27359-0.23458-0.17745-0.5888-0.23584-0.35423-0.0584-0.754 0.0458-0.91712 0.23894-1.3893 1.3664-0.47217 1.1275-0.10457 2.5385 0.36761 1.411 1.3299 2.1647 0.97407 0.75071 1.8794 0.51483 0.5879-0.15317 0.90239-0.53645 0.32319-0.3981 0.46082-0.78553l-0.4013-1.5403-1.411 0.36761q-0.23516 0.0613-0.44266-0.0605-0.2075-0.12173-0.26877-0.35689-0.0613-0.23515 0.0605-0.44265 0.12173-0.2075 0.35689-0.26877l1.9753-0.51464q0.19988-0.0521 0.41914 0.0666 0.23102 0.1156 0.29228 0.35076l0.58817 2.2575q0.0153 0.0588 0.0102 0.13546 7e-3 0.0736-2e-3 0.13853-0.0286 0.0828-0.0568 0.2157-0.0312 0.12114-0.20461 0.46766-0.16164 0.34346-0.38869 0.62862-0.21836 0.27035-0.64273 0.56925-0.42437 0.29891-0.95348 0.43676-1.4933 0.38904-2.8358-0.66746-1.3338-1.0713-1.7964-2.8468-0.30021-1.1523-0.12862-2.2768 0.1716-1.1245 0.80878-1.956 0.64895-0.83454 1.6484-1.0949 0.55262-0.14397 1.0837-0.0814 0.53109 0.0625 0.86279 0.22723 0.32864 0.15294 0.61993 0.40351 0.30305 0.2475 0.39554 0.36152 0.0894 0.10227 0.1492 0.18714 0.0567 0.0731 0.0812 0.16718 0.046 0.17637-0.02 0.35679-0.0542 0.17737-0.20354 0.27904zm5.2032 5.5592q-0.0846-0.0257-0.15649-0.0877-0.0719-0.062-0.11921-0.13571-0.0474-0.0737-0.0824-0.15937-0.0229-0.0855-0.0214-0.1705 2e-3 -0.0972 0.0397-0.19376l2.8049-7.7298q0.0636-0.16905 0.22342-0.27571 0.1598-0.10665 0.32988-0.10376l0.68033 0.012q0.18223 3e-3 0.3381 0.12727 0.15607 0.11203 0.20198 0.27078l2.5406 7.8206q0.0348 0.0978 0.0332 0.195-2e-3 0.12149-0.0525 0.23t-0.14909 0.1919q-0.0865 0.0836-0.19645 0.11819-0.0978 0.0348-0.19499 0.0331-0.18224-3e-3 -0.33831-0.11512-0.14393-0.11182-0.20178-0.28293l-0.45067-1.3687-3.9848-0.0677-0.49693 1.3526q-0.0636 0.16905-0.22342 0.27571-0.14765 0.10686-0.32988 0.10376-0.10934-2e-3 -0.19376-0.0397zm1.6647-2.8518 3.183 0.0541-1.5126-4.6679zm11.146-4.2695q0.21284-0.11213 0.44495-0.0402 0.23212 0.0719 0.34425 0.28477 0.11213 0.21284 0.0402 0.44496l-2.302 7.4278q-0.0719 0.23212-0.28477 0.34424-0.21284 0.11213-0.44496 0.0402-0.23212-0.0719-0.34424-0.28478-0.11213-0.21284-0.0402-0.44495l2.302-7.4278q0.0719-0.23212 0.28478-0.34425zm3.0556 10.25q-0.22481 0.0857-0.44656-0.0137t-0.3074-0.3242q-0.0857-0.22481 0.0137-0.44656l3.1807-7.0961q0.0994-0.22175 0.33529-0.30243 0.24698-0.0757 0.43547 9e-3l0.1774 0.0795 0.2661 0.11928q0.14414 0.0646 0.23131 0.19689 0.0983 0.13725 0.11509 0.27795l0.67467 7.466 2.5545-5.699q0.0994-0.22175 0.3242-0.3074 0.22481-0.0856 0.44656 0.0137 0.22175 0.0994 0.3074 0.3242 0.0856 0.2248-0.0137 0.44655l-3.1807 7.0961q-0.0845 0.18849-0.31923 0.29631-0.22977 0.0967-0.45153-3e-3l-0.15522-0.0696-0.19958-0.0895q-0.31045-0.13915-0.3464-0.47483l-0.6938-7.661-2.6241 5.8542q-0.0994 0.22175-0.3242 0.3074zm16.04 0.99479q-0.0379-7e-3 -0.0864-0.0188-0.0428-0.023-0.075-0.0402-0.17132-0.0919-0.25882-0.26293-0.0768-0.16529-0.0499-0.34391 7e-3 -0.065 0.01-0.1465 8e-3 -0.0922-0.045-0.32745-0.0423-0.22954-0.15047-0.43922-0.0974-0.20393-0.35624-0.46686-0.24811-0.25719-0.61215-0.45248-0.77092-0.41355-1.3658-0.33279-0.59485 0.0808-0.85906 0.57329-0.0517 0.0964-0.0869 0.18777-0.0245 0.0971-0.0399 0.25435-5e-3 0.16295 0.0664 0.33894 0.0711 0.176 0.20635 0.38646 0.146 0.2162 0.41552 0.48488 0.28023 0.27442 0.66335 0.56267 0.63356 0.46396 1.0104 0.96947 0.38758 0.51126 0.50436 0.98756 0.13324 0.47133 0.0829 0.89934-0.0396 0.43375-0.25216 0.82991-0.5514 1.0279-1.7113 1.2881-1.1599 0.26022-2.402-0.40605-0.41758-0.224-0.74639-0.51069-0.32305-0.2974-0.51607-0.58018-0.19301-0.28279-0.34163-0.59692-0.13217-0.31909-0.19095-0.54366-0.053-0.23528-0.0789-0.46977-0.0201-0.2452-0.0178-0.32668 8e-3 -0.0922 0.01-0.1465 9e-3 -0.11934 0.0663-0.22641 0.17806-0.33192 0.56323-0.30455 0.11934 9e-3 0.21571 0.0606 0.33192 0.17806 0.31603 0.54182-2e-3 0.0815-5e-3 0.19011 0.0133 0.10366 0.0656 0.3661 0.063 0.26818 0.18103 0.51076 0.11806 0.24258 0.38184 0.52196 0.27448 0.28513 0.64923 0.48616 0.87799 0.47099 1.5509 0.3218 0.67867-0.15989 0.98309-0.72738 0.10913-0.20343 0.14175-0.39276 0.0326-0.18933-0.0246-0.46821-0.0572-0.27889-0.34086-0.62407-0.28363-0.34519-0.78374-0.72378-1.3042-0.96161-1.6514-1.9338-0.33646-0.96642 0.0886-1.7588 0.54565-1.0172 1.626-1.1547 1.0968-0.14245 2.1782 0.43767 0.36404 0.19529 0.65079 0.43184 0.29746 0.2423 0.48055 0.49219 0.18308 0.24988 0.31185 0.4982 0.13451 0.23762 0.19826 0.47864 0.0695 0.23031 0.0912 0.4212 0.0382 0.18592 0.0277 0.35958 6e-3 0.16869 4e-3 0.25017-2e-3 0.0815-9e-3 0.11934-0.0188 0.0864-0.059 0.16139-0.0287 0.0535-0.0682 0.10132-0.0394 0.0478-0.0896 0.0898-0.0444 0.0314-0.0995 0.0569-0.0551 0.0256-0.1209 0.0454-0.0494 0.0149-0.12012 0.0183-0.0601 9e-3 -0.12508 2e-3zm3.9668 0.50716q-0.0643-0.23181 0.0553-0.44333 0.11964-0.21152 0.35145-0.27583 0.23181-0.0643 0.44333 0.0553l5.2456 2.9671q0.21151 0.11964 0.27583 0.35145 0.0643 0.23181-0.0553 0.44333-0.11964 0.21152-0.35145 0.27583-0.23181 0.0643-0.44333-0.0553l-2.1152-1.1964-3.5414 6.2609q-0.11964 0.21152-0.35145 0.27584-0.23181 0.0643-0.44333-0.0553-0.21152-0.11964-0.27583-0.35145-0.0643-0.23181 0.0553-0.44333l3.5414-6.2609-2.1152-1.1964q-0.21151-0.11964-0.27583-0.35145z" style="fill:#ffffff;stroke-width:2.6458" aria-label="AGAINST"/>
  <path d="m55.98 196.9q-0.08846 9e-5 -0.17528-0.0382-0.08682-0.0383-0.15364-0.095-0.06681-0.0567-0.1253-0.1284-0.0468-0.0751-0.07025-0.15682-0.02679-0.0934-0.01855-0.19692l0.42608-8.2119q0.01151-0.18026 0.13321-0.32892 0.12169-0.14866 0.28521-0.19555l0.65407-0.1876q0.1752-0.0502 0.36053 0.023 0.18198 0.0616 0.27224 0.20002l4.713 6.7382q0.06183 0.0834 0.08863 0.17683 0.03349 0.11679 0.01692 0.23531-0.01658 0.11851-0.08657 0.22707-0.05831 0.1052-0.15338 0.17038-0.08339 0.0618-0.17683 0.0886-0.1752 0.0502-0.35718-0.0113-0.1703-0.0649-0.27559-0.21169l-0.83062-1.1775-3.831 1.0985-0.0804 1.4388q-0.01151 0.18026-0.13321 0.32892-0.11002 0.14531-0.28521 0.19554-0.10512 0.0301-0.19692 0.0186zm0.75966-3.2136 3.0601-0.87748-2.8094-4.0229zm11.575-9.3483q0.11854-0.20934 0.35273-0.2742 0.2342-0.0649 0.44353 0.0537 0.20934 0.11854 0.27419 0.35274l1.5306 5.527q0.31131 1.1241-0.39451 2.1265-0.69411 0.99912-1.9236 1.3396-1.2295 0.3405-2.3504-0.15598-1.1092-0.49973-1.4205-1.6239l-1.5306-5.527q-0.06486-0.2342 0.05368-0.44353 0.11854-0.20934 0.35273-0.27419 0.2342-0.0649 0.44353 0.0537 0.20934 0.11853 0.27419 0.35273l1.5306 5.527q0.16214 0.58549 0.82726 0.893 0.67683 0.30427 1.5082 0.074 0.83139-0.23025 1.2436-0.8361 0.42389-0.60909 0.26175-1.1946l-1.5306-5.527q-0.06486-0.2342 0.05368-0.44353zm10.606-0.38525q-0.03232 0.0208-0.07641 0.0446-0.04709 0.012-0.08241 0.021-0.18838 0.048-0.36846-0.0189-0.16831-0.0699-0.26921-0.21975-0.03856-0.0529-0.0919-0.1145-0.05634-0.0734-0.25444-0.21098-0.18632-0.14057-0.40773-0.22204-0.20963-0.0845-0.57809-0.10336-0.35668-0.0219-0.75699 0.0802-0.8477 0.21619-1.2316 0.67773-0.38387 0.46154-0.24575 1.0031 0.02702 0.10596 0.06282 0.19715 0.04757 0.0882 0.14247 0.21445 0.10667 0.12327 0.27798 0.20497t0.41326 0.1454q0.25372 0.0607 0.63396 0.0766 0.39201 0.0129 0.86919-0.0336 0.78054-0.0862 1.4 0.0317 0.63119 0.11489 1.0392 0.38703 0.41674 0.25737 0.66888 0.60686 0.26392 0.3465 0.37501 0.78212 0.28825 1.1303-0.39083 2.106-0.67908 0.9757-2.0448 1.324-0.45917 0.11711-0.89527 0.12801-0.4391-8.7e-4 -0.77248-0.0789-0.33338-0.078-0.65521-0.20908-0.31307-0.14587-0.50816-0.27167-0.1981-0.13757-0.37565-0.29292-0.18055-0.16712-0.23389-0.22876-0.05634-0.0734-0.0919-0.11449-0.07412-0.094-0.10414-0.21169-0.09308-0.36498 0.20932-0.60512 0.09395-0.0741 0.19992-0.10114 0.36498-0.0931 0.59911 0.18578 0.05334 0.0616 0.12445 0.14381 0.07989 0.0674 0.29576 0.22552 0.22765 0.15511 0.47861 0.25412 0.25096 0.099 0.63419 0.12667 0.39501 0.0247 0.80709-0.0804 0.96544-0.24621 1.3606-0.81095 0.39217-0.57651 0.23303-1.2005-0.05705-0.2237-0.16096-0.38529t-0.33456-0.32848q-0.23065-0.16689-0.67299-0.22963-0.44234-0.0627-1.0668-4e-3 -1.6112 0.17265-2.5241-0.30929-0.90112-0.48493-1.1233-1.3562-0.28525-1.1185 0.41809-1.9499 0.71211-0.8462 1.9012-1.1495 0.4003-0.10209 0.77153-0.12152 0.383-0.0224 0.68682 0.038 0.30382 0.0605 0.56656 0.15646 0.25973 0.0842 0.4696 0.2188 0.20687 0.12279 0.35186 0.24883 0.15377 0.11126 0.26344 0.2463 0.11845 0.12026 0.17178 0.1819 0.05334 0.0616 0.07412 0.094 0.04457 0.0764 0.06558 0.15883 0.01501 0.0589 0.01825 0.12074 0.0032 0.0619-0.0053 0.12674-0.01154 0.0531-0.03485 0.1092t-0.0584 0.11521q-0.02631 0.0443-0.07617 0.0947-0.03809 0.0473-0.09095 0.0859zm3.2704-2.3209q-0.20341-0.12844-0.25696-0.36548-0.05355-0.23703 0.07488-0.44045 0.12844-0.20341 0.36547-0.25696l5.8785-1.3281q0.23704-0.0536 0.44045 0.0749 0.20341 0.12844 0.25696 0.36547 0.05355 0.23704-0.07488 0.44045-0.12844 0.20341-0.36547 0.25697l-2.3704 0.53553 1.5852 7.0162q0.05355 0.23703-0.07489 0.44044-0.12844 0.20342-0.36547 0.25697-0.23704 0.0536-0.44045-0.0749-0.20341-0.12843-0.25696-0.36547l-1.5852-7.0162-2.3704 0.53553q-0.23704 0.0536-0.44045-0.0749zm15.85-4.2304q0.19988 0.13387 0.24702 0.37226 0.04714 0.2384-0.08673 0.43827-0.13388 0.19988-0.37227 0.24702l-4.3864 0.86742 0.48085 2.4316 2.8607-0.56571q0.23839-0.0471 0.43827 0.0867 0.19988 0.13387 0.24702 0.37226 0.04714 0.2384-0.08673 0.43827-0.13388 0.19988-0.37227 0.24702l-2.8607 0.56571 0.57514 2.9084 4.5772-0.90513q0.23839-0.0471 0.43827 0.0867 0.19987 0.13387 0.24702 0.37227 0.04715 0.23839-0.08673 0.43826-0.13388 0.19988-0.37227 0.24702l-5.1493 1.0183q-0.20264 0.0401-0.42635-0.0891-0.21179-0.13152-0.25894-0.36991l-1.5086-7.6286q-0.04007-0.20264 0.09145-0.41443 0.12916-0.22372 0.36755-0.27086l4.9586-0.98056q0.23839-0.0471 0.43827 0.0867zm5.9388 2.5451 2.608-0.29365q0.78483-0.0884 1.1279-0.40822 0.35374-0.33328 0.27625-1.0215-0.0775-0.68823-0.49513-0.92243-0.40693-0.24764-1.1918-0.15927l-2.608 0.29365zm0.13051 1.1591 0.39153 3.4774q0.0272 0.24149-0.12281 0.42956t-0.39149 0.21526q-0.24148 0.0272-0.42956-0.12281-0.18807-0.15001-0.21526-0.39149l-0.45543-4.0449-0.41465-3.6826q-0.0272-0.24148 0.13489-0.43091 0.17416-0.19079 0.37942-0.2139l3.1876-0.35891q1.1108-0.12508 1.9757 0.38891 0.86351 0.50191 1.0008 1.7214 0.0693 0.61578-0.10569 1.1246-0.17639 0.49672-0.50735 0.81522-0.32024 0.30505-0.78689 0.50432l1.8444 3.2404q0.0161 0.0349 0.0323 0.0697 0.0162 0.0349 0.0202 0.0711 0.0162 0.0349 0.0216 0.0832 0.019 0.16904-0.0613 0.3248-0.0803 0.15577-0.22908 0.24589-0.10323 0.0605-0.22398 0.0741-0.16903 0.019-0.3248-0.0613t-0.24589-0.22909l-2.0112-3.5273zm10.155-5.1878q0.18057-0.15897 0.42308-0.14354 0.24252 0.0154 0.40149 0.19599 0.15896 0.18057 0.14353 0.42309l-0.49369 7.7606q-0.0154 0.24252-0.19599 0.40148-0.18056 0.15897-0.42308 0.14354-0.24252-0.0154-0.40148-0.19599-0.15897-0.18056-0.14354-0.42308l0.49369-7.7606q0.0154-0.24252 0.19599-0.40148zm5.6854 1.3755q-0.12928-0.20287-0.0767-0.44013 0.0526-0.23725 0.25544-0.36654 0.20287-0.12928 0.44013-0.0767l5.884 1.3036q0.23726 0.0526 0.36654 0.25543 0.12929 0.20288 0.0767 0.44014-0.0526 0.23725-0.25544 0.36654-0.20287 0.12928-0.44013 0.0767l-2.3726-0.52564-1.5559 7.0228q-0.0526 0.23726-0.25544 0.36654-0.20287 0.12929-0.44013 0.0767-0.23726-0.0526-0.36654-0.25544-0.12929-0.20287-0.0767-0.44013l1.5559-7.0228-2.3726-0.52564q-0.23725-0.0526-0.36654-0.25544zm10.825 1.8759q0.0896-0.0313 0.17776-0.0242 0.10381-2e-5 0.19484 0.0341 0.27307 0.10233 0.35134 0.3782l1.1243 3.7171 3.2903-2.0628q0.2403-0.15648 0.51337-0.0541 0.091 0.0341 0.15787 0.0981 0.0825 0.0569 0.12945 0.13934 0.15648 0.2403 0.0541 0.51336-0.0213 0.0569-0.054 0.10952-0.0327 0.0526-0.0881 0.0967-0.0441 0.0484-0.0953 0.0811l-3.7666 2.3644-1.3644 3.6409q-0.0853 0.22756-0.30426 0.32715-0.21898 0.0996-0.44654 0.0143-0.22755-0.0853-0.32715-0.30425-0.0996-0.21898-0.0143-0.44654l1.3644-3.6409-1.2851-4.2575q-0.0213-0.0469-0.0313-0.0896 6e-3 -0.0498-4e-3 -0.0924 6e-3 -0.0498 0.0113-0.0995 0.0171-0.0455 0.0341-0.091 0.10233-0.27306 0.3782-0.35134z" style="fill:#ffffff;stroke-width:.26458" aria-label="AUSTERITY"/>
  <path d="m168.89 206.35 0.41192-7.7654q0.0129-0.24267 0.20389-0.40289 0.20315-0.15957 0.40941-0.14862l2.5238 0.13387q0.364 0.0193 0.75732 0.17402 0.40546 0.15535 0.84851 0.51954 0.44369 0.35206 0.78195 0.85671t0.52631 1.3177q0.20083 0.80155 0.14934 1.7722-0.0515 0.97068-0.33664 1.7586-0.27237 0.77644-0.66211 1.2425-0.38975 0.46603-0.86884 0.78131-0.47845 0.30314-0.89807 0.41473-0.40748 0.11222-0.77149 0.0929l-2.5238-0.13388q-0.24267-0.0129-0.40288-0.20388-0.15957-0.20315-0.14863-0.40942zm1.1957-0.52061 1.9414 0.10298q0.16987 9e-3 0.40362-0.0394 0.2344-0.0606 0.56146-0.26224 0.32769-0.2138 0.60052-0.54002 0.27282-0.32622 0.48765-0.93537 0.21547-0.62128 0.2573-1.41 0.0418-0.78867-0.10734-1.4171-0.14853-0.64059-0.38531-0.99384-0.23678-0.35326-0.54066-0.58839-0.30324-0.24727-0.53056-0.32017-0.22667-0.085-0.39654-0.094l-1.9414-0.10298zm7.801-7.7276q0.14537-0.19167 0.38612-0.22475 0.24075-0.0331 0.43242 0.1123 0.19168 0.14537 0.22475 0.38612l1.0584 7.704q0.0331 0.24075-0.1123 0.43243-0.14537 0.19167-0.38612 0.22475-0.24075 0.0331-0.43243-0.1123-0.19167-0.14537-0.22475-0.38612l-1.0584-7.704q-0.0331-0.24075 0.1123-0.43243zm3.2568-0.55773q0.0429-0.0259 0.0857-0.0519 0.0429-0.026 0.10091-0.0439 0.16254-0.0502 0.34572 8e-3 0.1796 0.0463 0.28782 0.19091l4.2993 5.565 0.41435-7.0201q0.0142-0.11883 0.0704-0.22518 0.0562-0.10636 0.14634-0.18506 0.0901-0.0787 0.19464-0.11095 0.0232-7e-3 0.0348-0.0108 0.0232-7e-3 0.05-3e-3 0.0232-7e-3 0.0348-0.0108 0.0232-7e-3 0.0384 8.5e-4 0.0232-7e-3 0.05-3e-3 0.0652 5e-3 0.1376 0.0338 0.0688 0.0169 0.13316 0.0606 0.0608 0.0321 0.10192 0.083 0.0527 0.0473 0.0859 0.11337 0.0447 0.0625 0.0626 0.12055 0.0323 0.10448 0.0261 0.20812l-0.49271 8.2905q-8e-3 0.18046-0.12655 0.33154-0.11064 0.13589-0.28479 0.18964l-0.18576 0.0574q-0.17415 0.0538-0.35375 7e-3 -0.17157-0.0615-0.2798-0.20611l-5.0801-6.5702q-0.0259-0.0428-0.0519-0.0857-0.0259-0.0429-0.0439-0.1009-0.0502-0.16254-4e-3 -0.34214 0.0579-0.18319 0.20252-0.29141zm8.3393-2.8813q0.0742-0.22882 0.29072-0.33924 0.21648-0.11041 0.4453-0.0362 0.22883 0.0743 0.33924 0.29072l3.5332 6.9273q0.11041 0.21648 0.0362 0.4453-0.0743 0.22882-0.29073 0.33923-0.21648 0.11042-0.4453 0.0362-0.22882-0.0742-0.33923-0.29073l-3.5332-6.9273q-0.11041-0.21648-0.0362-0.4453zm8.4877-3.0283q-0.0203 0.0326-0.0499 0.0731-0.0374 0.0311-0.0654 0.0544-0.14948 0.1243-0.34085 0.14121-0.18202 9e-3 -0.3375-0.0828-0.0575-0.0312-0.13217-0.0639-0.0824-0.0421-0.32039-0.0812-0.22864-0.0469-0.46357-0.0254-0.22559 0.0138-0.56644 0.15498-0.33151 0.13344-0.64916 0.39757-0.67265 0.55935-0.82106 1.141t0.20895 1.0114q0.0699 0.0841 0.14141 0.15105 0.0808 0.0592 0.22077 0.13247 0.14928 0.0655 0.33908 0.0657t0.43565-0.0462q0.25519-0.0542 0.60538-0.20316 0.35954-0.15675 0.77051-0.40367 0.66783-0.41312 1.2778-0.57271 0.61935-0.16736 1.1047-0.0968 0.48688 0.0534 0.8647 0.26071 0.38716 0.19954 0.6746 0.54521 0.7458 0.89688 0.55165 2.0697t-1.2779 2.074q-0.36436 0.30298-0.75349 0.50015-0.39691 0.18782-0.73146 0.26058-0.33456 0.0728-0.6815 0.0926-0.34537 3e-3 -0.57559-0.0271-0.23798-0.0391-0.46505-0.10317-0.23483-0.0734-0.30947-0.10611-0.0824-0.0421-0.13217-0.0639-0.10729-0.053-0.18497-0.14644-0.24083-0.28961-0.0709-0.63636 0.053-0.10729 0.13708-0.1772 0.28962-0.24083 0.62083-0.0896 0.0746 0.0327 0.17416 0.0764 0.10109 0.0266 0.36395 0.0766 0.27221 0.0423 0.54137 0.0239 0.26915-0.0184 0.62711-0.15802 0.36731-0.1474 0.69429-0.4193 0.76609-0.63704 0.88037-1.3168 0.10652-0.68907-0.30522-1.1842-0.14761-0.17751-0.31085-0.2788-0.16325-0.1013-0.44322-0.15293-0.27997-0.0516-0.70638 0.0817-0.4264 0.13334-0.96502 0.4548-1.3808 0.84796-2.4122 0.80487-1.022-0.0509-1.5969-0.7422-0.73803-0.88754-0.46-1.9405 0.2796-1.07 1.2232-1.8547 0.31764-0.26414 0.64453-0.44115 0.33623-0.18477 0.63656-0.26068 0.30033-0.0759 0.57883-0.10207 0.27073-0.0355 0.51806-4e-3 0.23956 0.022 0.42463 0.0736 0.18665 0.0344 0.3437 0.10926 0.15862 0.0577 0.23326 0.0905 0.0746 0.0327 0.10729 0.053 0.0731 0.0499 0.12744 0.11526 0.0388 0.0467 0.0684 0.10119 0.0295 0.0545 0.0497 0.11674 0.0124 0.0529 0.0154 0.11358 3e-3 0.0607-3e-3 0.12912-5e-3 0.0513-0.0281 0.1182-0.0141 0.0591-0.0452 0.11663zm-0.11099-3.7244q-0.0347-0.23805 0.11049-0.43289 0.14522-0.19484 0.38327-0.22958 0.23805-0.0347 0.43289 0.11049l6.235 4.6472q0.19484 0.14522 0.22957 0.38327 0.0347 0.23805-0.11049 0.43289-0.14522 0.19484-0.38327 0.22958-0.23804 0.0347-0.43289-0.11049l-6.235-4.6472q-0.19485-0.14522-0.22958-0.38327zm7.0871-7.6858q1.1325 0.10662 2.1774 0.67767 1.0449 0.57104 1.7462 1.4667 0.70135 0.89562 0.86438 1.9401 0.16886 1.0339-0.32644 1.9401-0.49529 0.90628-1.4624 1.3331-0.96133 0.4162-2.0939 0.30958-1.1325-0.10663-2.1774-0.67767-1.0449-0.57104-1.7462-1.4667-0.70134-0.89562-0.8702-1.9295-0.16303-1.0445 0.33226-1.9508t1.4566-1.3225q0.96715-0.42686 2.0997-0.32024zm3.395 3.517q-0.49752-1.1165-1.777-1.8158-1.2794-0.69924-2.4879-0.515-1.2084 0.18423-1.6629 1.0159-0.45451 0.83165 0.043 1.9482 0.49752 1.1166 1.777 1.8158 1.2795 0.69923 2.4879 0.515 1.2084-0.18423 1.6629-1.0159 0.4545-0.83165-0.043-1.9482zm4.2675-4.7706q0.0994 0.21906 0.014 0.44655-0.0854 0.2275-0.3045 0.32693-0.21905 0.0994-0.44654 0.014l-7.2798-2.7341q-0.2275-0.0854-0.32266-0.31587-0.0909-0.2418-0.0183-0.43517l0.0684-0.182 0.10253-0.27299q0.0555-0.14787 0.18215-0.24309 0.13089-0.10659 0.27027-0.13212l7.4098-1.1368-5.8466-2.1958q-0.22749-0.0854-0.32693-0.3045-0.0994-0.21905-0.014-0.44655 0.0855-0.22749 0.3045-0.32693 0.21905-0.0994 0.44655-0.014l7.2798 2.7341q0.19337 0.0726 0.31555 0.30022 0.11082 0.22333 0.0254 0.45082l-0.0598 0.15925-0.0769 0.20474q-0.11962 0.3185-0.45242 0.37521l-7.6032 1.168 6.0058 2.2556q0.22749 0.0854 0.32693 0.30449z" style="fill:#ffffff;stroke-width:.26511" aria-label="DIVISION"/>
  <path d="m143.04 204.51q-0.0847 0.0257-0.17885 0.0141-0.0942-0.0115-0.17454-0.0465-0.0804-0.0349-0.15708-0.0867-0.0665-0.0583-0.1126-0.1298-0.0527-0.0817-0.0747-0.18314l-1.9673-7.9841q-0.0411-0.17589 0.0324-0.35339t0.21646-0.26968l0.57186-0.36872q0.15318-0.0988 0.35178-0.0822 0.19201 6e-3 0.31845 0.11273l6.4605 5.0871q0.0833 0.0619 0.13599 0.14363 0.0658 0.10212 0.0843 0.22037 0.0184 0.11824-0.0172 0.2424-0.0254 0.11757-0.0975 0.20746-0.0619 0.0833-0.14364 0.13599-0.15318 0.0988-0.34519 0.0925-0.1818-0.0129-0.32504-0.12294l-1.1357-0.88695-3.3495 2.1596 0.33917 1.4005q0.0411 0.17588-0.0324 0.35339-0.0633 0.17091-0.21646 0.26968-0.0919 0.0592-0.18314 0.0747zm-0.20228-3.2959 2.6755-1.7251-3.8529-3.0384zm9.167-2.8676q-0.053 0.23465-0.25854 0.36436-0.20549 0.12971-0.44014 0.0767-0.23465-0.053-0.36436-0.25854l-4.1509-6.5758q-0.12971-0.20549-0.0664-0.44662 0.0736-0.24762 0.24826-0.35788l0.41099-0.25943q0.13357-0.0843 0.292-0.0837 0.16869-6e-3 0.2952 0.0579l6.5923 3.5691-3.3337-5.2812q-0.12972-0.2055-0.0767-0.44014 0.0531-0.23465 0.25854-0.36436 0.20549-0.12972 0.44014-0.0767 0.23465 0.053 0.36436 0.25854l4.1509 6.5758q0.11025 0.17467 0.0702 0.42987-0.0466 0.24492-0.25205 0.37464l-0.14385 0.0908-0.18495 0.11674q-0.28769 0.1816-0.58719 0.0258l-6.7653-3.6611 3.4245 5.425q0.12972 0.20549 0.0767 0.44014zm7.4705-5.1581-4.2314-6.5242q-0.13224-0.20389-0.0719-0.44578 0.0705-0.2485 0.24385-0.3609l2.1204-1.3752q0.30582-0.19835 0.71496-0.3044 0.41933-0.11266 0.99183-0.0785 0.56589 0.024 1.1362 0.23341 0.57029 0.20942 1.2004 0.75661 0.63364 0.53039 1.1626 1.3459t0.76142 1.6206q0.23606 0.78824 0.1947 1.3944-0.0413 0.60612-0.24361 1.1428-0.20886 0.52648-0.48273 0.86341-0.26368 0.33032-0.56951 0.52867l-2.1204 1.3752q-0.20388 0.13223-0.44577 0.0719-0.24851-0.0705-0.36091-0.24384zm0.66128-1.124 1.6311-1.0579q0.14271-0.0926 0.30335-0.26915 0.15401-0.18679 0.30005-0.54218 0.13943-0.3656 0.16838-0.78988 0.029-0.42428-0.15533-1.0434-0.19089-0.62927-0.62065-1.2919-0.42975-0.66262-0.91986-1.0834-0.49672-0.43092-0.89592-0.57751t-0.78326-0.15819q-0.39067-0.0218-0.61742 0.0529-0.23336 0.0644-0.37607 0.15702l-1.6311 1.0579z" style="fill:#ffffff;stroke-width:.26458" aria-label="AND"/>
 </g>
</svg>
